<mxfile host="app.diagrams.net" modified="2021-01-19T05:01:44.249Z" agent="5.0 (Windows NT 10.0; Win64; x64) AppleWebKit/537.36 (KHTML, like Gecko) Chrome/87.0.4280.141 Safari/537.36" etag="LxILUqMEayb5cIlFeoW8" version="14.1.9" type="github">
  <diagram id="NBOCJyrbDULrzeFV42hS" name="Page-1">
    <mxGraphModel dx="5337" dy="2897" grid="1" gridSize="10" guides="1" tooltips="1" connect="1" arrows="1" fold="1" page="1" pageScale="1" pageWidth="827" pageHeight="1169" math="0" shadow="0">
      <root>
        <mxCell id="0" />
        <mxCell id="1" parent="0" />
        <mxCell id="EW1axWE9C3zxqAU5lldP-44" style="edgeStyle=orthogonalEdgeStyle;rounded=0;orthogonalLoop=1;jettySize=auto;html=1;entryX=-0.04;entryY=1.359;entryDx=0;entryDy=0;entryPerimeter=0;" parent="1" source="EW1axWE9C3zxqAU5lldP-9" target="EW1axWE9C3zxqAU5lldP-4" edge="1">
          <mxGeometry relative="1" as="geometry">
            <mxPoint x="10" y="75" as="targetPoint" />
          </mxGeometry>
        </mxCell>
        <mxCell id="EW1axWE9C3zxqAU5lldP-43" style="edgeStyle=orthogonalEdgeStyle;rounded=0;orthogonalLoop=1;jettySize=auto;html=1;entryX=0;entryY=0.5;entryDx=0;entryDy=0;" parent="1" source="EW1axWE9C3zxqAU5lldP-18" target="EW1axWE9C3zxqAU5lldP-24" edge="1">
          <mxGeometry relative="1" as="geometry">
            <mxPoint x="-160" y="235" as="targetPoint" />
          </mxGeometry>
        </mxCell>
        <mxCell id="EW1axWE9C3zxqAU5lldP-62" style="edgeStyle=orthogonalEdgeStyle;rounded=0;orthogonalLoop=1;jettySize=auto;html=1;entryX=0.5;entryY=0;entryDx=0;entryDy=0;" parent="1" source="EW1axWE9C3zxqAU5lldP-14" target="EW1axWE9C3zxqAU5lldP-53" edge="1">
          <mxGeometry relative="1" as="geometry">
            <Array as="points">
              <mxPoint x="80" y="300" />
              <mxPoint x="-220" y="300" />
            </Array>
          </mxGeometry>
        </mxCell>
        <mxCell id="EW1axWE9C3zxqAU5lldP-63" style="edgeStyle=orthogonalEdgeStyle;rounded=0;orthogonalLoop=1;jettySize=auto;html=1;entryX=1.069;entryY=0.385;entryDx=0;entryDy=0;entryPerimeter=0;" parent="1" source="EW1axWE9C3zxqAU5lldP-14" target="EW1axWE9C3zxqAU5lldP-24" edge="1">
          <mxGeometry relative="1" as="geometry">
            <Array as="points">
              <mxPoint x="40" y="232" />
              <mxPoint x="40" y="232" />
            </Array>
          </mxGeometry>
        </mxCell>
        <mxCell id="EW1axWE9C3zxqAU5lldP-95" style="edgeStyle=orthogonalEdgeStyle;rounded=0;orthogonalLoop=1;jettySize=auto;html=1;" parent="1" source="EW1axWE9C3zxqAU5lldP-14" edge="1">
          <mxGeometry relative="1" as="geometry">
            <mxPoint x="160" y="357" as="targetPoint" />
            <Array as="points">
              <mxPoint x="180" y="324" />
              <mxPoint x="160" y="324" />
              <mxPoint x="160" y="357" />
            </Array>
          </mxGeometry>
        </mxCell>
        <mxCell id="EW1axWE9C3zxqAU5lldP-14" value="Paciente" style="swimlane;fontStyle=0;childLayout=stackLayout;horizontal=1;startSize=26;fillColor=none;horizontalStack=0;resizeParent=1;resizeParentMax=0;resizeLast=0;collapsible=1;marginBottom=0;" parent="1" vertex="1">
          <mxGeometry x="60" y="180" width="140" height="104" as="geometry" />
        </mxCell>
        <mxCell id="EW1axWE9C3zxqAU5lldP-15" value="PK id" style="text;strokeColor=none;fillColor=none;align=left;verticalAlign=top;spacingLeft=4;spacingRight=4;overflow=hidden;rotatable=0;points=[[0,0.5],[1,0.5]];portConstraint=eastwest;" parent="EW1axWE9C3zxqAU5lldP-14" vertex="1">
          <mxGeometry y="26" width="140" height="26" as="geometry" />
        </mxCell>
        <mxCell id="EW1axWE9C3zxqAU5lldP-16" value="nombre" style="text;strokeColor=none;fillColor=none;align=left;verticalAlign=top;spacingLeft=4;spacingRight=4;overflow=hidden;rotatable=0;points=[[0,0.5],[1,0.5]];portConstraint=eastwest;" parent="EW1axWE9C3zxqAU5lldP-14" vertex="1">
          <mxGeometry y="52" width="140" height="26" as="geometry" />
        </mxCell>
        <mxCell id="EW1axWE9C3zxqAU5lldP-17" value="total a pagar" style="text;strokeColor=none;fillColor=none;align=left;verticalAlign=top;spacingLeft=4;spacingRight=4;overflow=hidden;rotatable=0;points=[[0,0.5],[1,0.5]];portConstraint=eastwest;" parent="EW1axWE9C3zxqAU5lldP-14" vertex="1">
          <mxGeometry y="78" width="140" height="26" as="geometry" />
        </mxCell>
        <mxCell id="EW1axWE9C3zxqAU5lldP-46" style="edgeStyle=orthogonalEdgeStyle;rounded=0;orthogonalLoop=1;jettySize=auto;html=1;entryX=0.5;entryY=0;entryDx=0;entryDy=0;" parent="1" source="EW1axWE9C3zxqAU5lldP-3" target="EW1axWE9C3zxqAU5lldP-14" edge="1">
          <mxGeometry relative="1" as="geometry" />
        </mxCell>
        <mxCell id="EW1axWE9C3zxqAU5lldP-49" style="edgeStyle=orthogonalEdgeStyle;rounded=0;orthogonalLoop=1;jettySize=auto;html=1;entryX=0.01;entryY=0.192;entryDx=0;entryDy=0;entryPerimeter=0;" parent="1" source="EW1axWE9C3zxqAU5lldP-3" target="EW1axWE9C3zxqAU5lldP-32" edge="1">
          <mxGeometry relative="1" as="geometry" />
        </mxCell>
        <mxCell id="EW1axWE9C3zxqAU5lldP-3" value="Cirugia" style="swimlane;fontStyle=0;childLayout=stackLayout;horizontal=1;startSize=26;fillColor=none;horizontalStack=0;resizeParent=1;resizeParentMax=0;resizeLast=0;collapsible=1;marginBottom=0;" parent="1" vertex="1">
          <mxGeometry x="80" y="10" width="140" height="120" as="geometry" />
        </mxCell>
        <mxCell id="EW1axWE9C3zxqAU5lldP-4" value="PK ID" style="text;strokeColor=none;fillColor=none;align=left;verticalAlign=top;spacingLeft=4;spacingRight=4;overflow=hidden;rotatable=0;points=[[0,0.5],[1,0.5]];portConstraint=eastwest;" parent="EW1axWE9C3zxqAU5lldP-3" vertex="1">
          <mxGeometry y="26" width="140" height="26" as="geometry" />
        </mxCell>
        <mxCell id="EW1axWE9C3zxqAU5lldP-5" value="FK nombreHospital" style="text;strokeColor=none;fillColor=none;align=left;verticalAlign=top;spacingLeft=4;spacingRight=4;overflow=hidden;rotatable=0;points=[[0,0.5],[1,0.5]];portConstraint=eastwest;" parent="EW1axWE9C3zxqAU5lldP-3" vertex="1">
          <mxGeometry y="52" width="140" height="26" as="geometry" />
        </mxCell>
        <mxCell id="EW1axWE9C3zxqAU5lldP-6" value="tipo&#xa;Costo" style="text;strokeColor=none;fillColor=none;align=left;verticalAlign=top;spacingLeft=4;spacingRight=4;overflow=hidden;rotatable=0;points=[[0,0.5],[1,0.5]];portConstraint=eastwest;" parent="EW1axWE9C3zxqAU5lldP-3" vertex="1">
          <mxGeometry y="78" width="140" height="42" as="geometry" />
        </mxCell>
        <mxCell id="EW1axWE9C3zxqAU5lldP-50" style="edgeStyle=orthogonalEdgeStyle;rounded=0;orthogonalLoop=1;jettySize=auto;html=1;" parent="1" source="EW1axWE9C3zxqAU5lldP-30" target="EW1axWE9C3zxqAU5lldP-34" edge="1">
          <mxGeometry relative="1" as="geometry" />
        </mxCell>
        <mxCell id="EW1axWE9C3zxqAU5lldP-52" style="edgeStyle=orthogonalEdgeStyle;rounded=0;orthogonalLoop=1;jettySize=auto;html=1;entryX=0.019;entryY=0.224;entryDx=0;entryDy=0;entryPerimeter=0;exitX=1.012;exitY=-0.038;exitDx=0;exitDy=0;exitPerimeter=0;" parent="1" source="EW1axWE9C3zxqAU5lldP-33" target="EW1axWE9C3zxqAU5lldP-40" edge="1">
          <mxGeometry relative="1" as="geometry">
            <Array as="points">
              <mxPoint x="476" y="6" />
              <mxPoint x="476" y="74" />
            </Array>
          </mxGeometry>
        </mxCell>
        <mxCell id="EW1axWE9C3zxqAU5lldP-61" style="edgeStyle=orthogonalEdgeStyle;rounded=0;orthogonalLoop=1;jettySize=auto;html=1;entryX=0.5;entryY=0;entryDx=0;entryDy=0;" parent="1" source="EW1axWE9C3zxqAU5lldP-53" target="EW1axWE9C3zxqAU5lldP-57" edge="1">
          <mxGeometry relative="1" as="geometry" />
        </mxCell>
        <mxCell id="EW1axWE9C3zxqAU5lldP-22" value="EnfermedadXPaciente" style="swimlane;fontStyle=0;childLayout=stackLayout;horizontal=1;startSize=26;fillColor=none;horizontalStack=0;resizeParent=1;resizeParentMax=0;resizeLast=0;collapsible=1;marginBottom=0;" parent="1" vertex="1">
          <mxGeometry x="-150" y="170" width="140" height="104" as="geometry" />
        </mxCell>
        <mxCell id="EW1axWE9C3zxqAU5lldP-23" value="PKÂ  idEnfer Id Pacient" style="text;strokeColor=none;fillColor=none;align=left;verticalAlign=top;spacingLeft=4;spacingRight=4;overflow=hidden;rotatable=0;points=[[0,0.5],[1,0.5]];portConstraint=eastwest;" parent="EW1axWE9C3zxqAU5lldP-22" vertex="1">
          <mxGeometry y="26" width="140" height="26" as="geometry" />
        </mxCell>
        <mxCell id="EW1axWE9C3zxqAU5lldP-24" value="FK id Paciente" style="text;strokeColor=none;fillColor=none;align=left;verticalAlign=top;spacingLeft=4;spacingRight=4;overflow=hidden;rotatable=0;points=[[0,0.5],[1,0.5]];portConstraint=eastwest;" parent="EW1axWE9C3zxqAU5lldP-22" vertex="1">
          <mxGeometry y="52" width="140" height="26" as="geometry" />
        </mxCell>
        <mxCell id="EW1axWE9C3zxqAU5lldP-25" value="FK id Enfermedad" style="text;strokeColor=none;fillColor=none;align=left;verticalAlign=top;spacingLeft=4;spacingRight=4;overflow=hidden;rotatable=0;points=[[0,0.5],[1,0.5]];portConstraint=eastwest;" parent="EW1axWE9C3zxqAU5lldP-22" vertex="1">
          <mxGeometry y="78" width="140" height="26" as="geometry" />
        </mxCell>
        <mxCell id="EW1axWE9C3zxqAU5lldP-18" value="Enfermedad" style="swimlane;fontStyle=0;childLayout=stackLayout;horizontal=1;startSize=26;fillColor=none;horizontalStack=0;resizeParent=1;resizeParentMax=0;resizeLast=0;collapsible=1;marginBottom=0;" parent="1" vertex="1">
          <mxGeometry x="-330" y="180" width="140" height="104" as="geometry" />
        </mxCell>
        <mxCell id="EW1axWE9C3zxqAU5lldP-19" value="PK id enfermedad" style="text;strokeColor=none;fillColor=none;align=left;verticalAlign=top;spacingLeft=4;spacingRight=4;overflow=hidden;rotatable=0;points=[[0,0.5],[1,0.5]];portConstraint=eastwest;" parent="EW1axWE9C3zxqAU5lldP-18" vertex="1">
          <mxGeometry y="26" width="140" height="26" as="geometry" />
        </mxCell>
        <mxCell id="EW1axWE9C3zxqAU5lldP-20" value="Sintomas" style="text;strokeColor=none;fillColor=none;align=left;verticalAlign=top;spacingLeft=4;spacingRight=4;overflow=hidden;rotatable=0;points=[[0,0.5],[1,0.5]];portConstraint=eastwest;" parent="EW1axWE9C3zxqAU5lldP-18" vertex="1">
          <mxGeometry y="52" width="140" height="26" as="geometry" />
        </mxCell>
        <mxCell id="EW1axWE9C3zxqAU5lldP-21" value="riesgos" style="text;strokeColor=none;fillColor=none;align=left;verticalAlign=top;spacingLeft=4;spacingRight=4;overflow=hidden;rotatable=0;points=[[0,0.5],[1,0.5]];portConstraint=eastwest;" parent="EW1axWE9C3zxqAU5lldP-18" vertex="1">
          <mxGeometry y="78" width="140" height="26" as="geometry" />
        </mxCell>
        <mxCell id="EW1axWE9C3zxqAU5lldP-110" style="edgeStyle=orthogonalEdgeStyle;rounded=0;orthogonalLoop=1;jettySize=auto;html=1;entryX=0.252;entryY=0.992;entryDx=0;entryDy=0;entryPerimeter=0;" parent="1" source="EW1axWE9C3zxqAU5lldP-64" target="EW1axWE9C3zxqAU5lldP-33" edge="1">
          <mxGeometry relative="1" as="geometry" />
        </mxCell>
        <mxCell id="EW1axWE9C3zxqAU5lldP-64" value="Sala cirugia" style="swimlane;fontStyle=0;childLayout=stackLayout;horizontal=1;startSize=26;fillColor=none;horizontalStack=0;resizeParent=1;resizeParentMax=0;resizeLast=0;collapsible=1;marginBottom=0;" parent="1" vertex="1">
          <mxGeometry x="280" y="100" width="140" height="104" as="geometry" />
        </mxCell>
        <mxCell id="EW1axWE9C3zxqAU5lldP-65" value="PKÂ  NumHabitacion" style="text;strokeColor=none;fillColor=none;align=left;verticalAlign=top;spacingLeft=4;spacingRight=4;overflow=hidden;rotatable=0;points=[[0,0.5],[1,0.5]];portConstraint=eastwest;" parent="EW1axWE9C3zxqAU5lldP-64" vertex="1">
          <mxGeometry y="26" width="140" height="26" as="geometry" />
        </mxCell>
        <mxCell id="EW1axWE9C3zxqAU5lldP-66" value="FKÂ  idPaciente" style="text;strokeColor=none;fillColor=none;align=left;verticalAlign=top;spacingLeft=4;spacingRight=4;overflow=hidden;rotatable=0;points=[[0,0.5],[1,0.5]];portConstraint=eastwest;" parent="EW1axWE9C3zxqAU5lldP-64" vertex="1">
          <mxGeometry y="52" width="140" height="26" as="geometry" />
        </mxCell>
        <mxCell id="EW1axWE9C3zxqAU5lldP-67" value="Costo de uso de sala" style="text;strokeColor=none;fillColor=none;align=left;verticalAlign=top;spacingLeft=4;spacingRight=4;overflow=hidden;rotatable=0;points=[[0,0.5],[1,0.5]];portConstraint=eastwest;" parent="EW1axWE9C3zxqAU5lldP-64" vertex="1">
          <mxGeometry y="78" width="140" height="26" as="geometry" />
        </mxCell>
        <mxCell id="EW1axWE9C3zxqAU5lldP-68" value="Sala RecuperaciÃ³n" style="swimlane;fontStyle=0;childLayout=stackLayout;horizontal=1;startSize=26;fillColor=none;horizontalStack=0;resizeParent=1;resizeParentMax=0;resizeLast=0;collapsible=1;marginBottom=0;" parent="1" vertex="1">
          <mxGeometry x="280" y="220" width="140" height="140" as="geometry" />
        </mxCell>
        <mxCell id="EW1axWE9C3zxqAU5lldP-69" value="PKÂ  NumHabitacion" style="text;strokeColor=none;fillColor=none;align=left;verticalAlign=top;spacingLeft=4;spacingRight=4;overflow=hidden;rotatable=0;points=[[0,0.5],[1,0.5]];portConstraint=eastwest;" parent="EW1axWE9C3zxqAU5lldP-68" vertex="1">
          <mxGeometry y="26" width="140" height="26" as="geometry" />
        </mxCell>
        <mxCell id="EW1axWE9C3zxqAU5lldP-70" value="FKÂ  idPaciente" style="text;strokeColor=none;fillColor=none;align=left;verticalAlign=top;spacingLeft=4;spacingRight=4;overflow=hidden;rotatable=0;points=[[0,0.5],[1,0.5]];portConstraint=eastwest;" parent="EW1axWE9C3zxqAU5lldP-68" vertex="1">
          <mxGeometry y="52" width="140" height="26" as="geometry" />
        </mxCell>
        <mxCell id="EW1axWE9C3zxqAU5lldP-71" value="Datos de signos vitales&#xa;Tiempo transcurrido&#xa;Costo por minuto" style="text;strokeColor=none;fillColor=none;align=left;verticalAlign=top;spacingLeft=4;spacingRight=4;overflow=hidden;rotatable=0;points=[[0,0.5],[1,0.5]];portConstraint=eastwest;" parent="EW1axWE9C3zxqAU5lldP-68" vertex="1">
          <mxGeometry y="78" width="140" height="62" as="geometry" />
        </mxCell>
        <mxCell id="EW1axWE9C3zxqAU5lldP-81" style="edgeStyle=orthogonalEdgeStyle;rounded=0;orthogonalLoop=1;jettySize=auto;html=1;entryX=0;entryY=0.5;entryDx=0;entryDy=0;" parent="1" source="EW1axWE9C3zxqAU5lldP-16" target="EW1axWE9C3zxqAU5lldP-66" edge="1">
          <mxGeometry relative="1" as="geometry" />
        </mxCell>
        <mxCell id="EW1axWE9C3zxqAU5lldP-82" style="edgeStyle=orthogonalEdgeStyle;rounded=0;orthogonalLoop=1;jettySize=auto;html=1;entryX=0;entryY=0.5;entryDx=0;entryDy=0;" parent="1" source="EW1axWE9C3zxqAU5lldP-16" target="EW1axWE9C3zxqAU5lldP-70" edge="1">
          <mxGeometry relative="1" as="geometry" />
        </mxCell>
        <mxCell id="EW1axWE9C3zxqAU5lldP-83" style="edgeStyle=orthogonalEdgeStyle;rounded=0;orthogonalLoop=1;jettySize=auto;html=1;entryX=-0.05;entryY=0.667;entryDx=0;entryDy=0;entryPerimeter=0;" parent="1" source="EW1axWE9C3zxqAU5lldP-16" target="EW1axWE9C3zxqAU5lldP-77" edge="1">
          <mxGeometry relative="1" as="geometry" />
        </mxCell>
        <mxCell id="EW1axWE9C3zxqAU5lldP-76" value="HabitaciÃ³n" style="swimlane;fontStyle=0;childLayout=stackLayout;horizontal=1;startSize=26;fillColor=none;horizontalStack=0;resizeParent=1;resizeParentMax=0;resizeLast=0;collapsible=1;marginBottom=0;" parent="1" vertex="1">
          <mxGeometry x="280" y="404" width="140" height="140" as="geometry" />
        </mxCell>
        <mxCell id="EW1axWE9C3zxqAU5lldP-77" value="PKÂ  NumHabitacion" style="text;strokeColor=none;fillColor=none;align=left;verticalAlign=top;spacingLeft=4;spacingRight=4;overflow=hidden;rotatable=0;points=[[0,0.5],[1,0.5]];portConstraint=eastwest;" parent="EW1axWE9C3zxqAU5lldP-76" vertex="1">
          <mxGeometry y="26" width="140" height="26" as="geometry" />
        </mxCell>
        <mxCell id="EW1axWE9C3zxqAU5lldP-78" value="FKÂ  idPaciente" style="text;strokeColor=none;fillColor=none;align=left;verticalAlign=top;spacingLeft=4;spacingRight=4;overflow=hidden;rotatable=0;points=[[0,0.5],[1,0.5]];portConstraint=eastwest;" parent="EW1axWE9C3zxqAU5lldP-76" vertex="1">
          <mxGeometry y="52" width="140" height="26" as="geometry" />
        </mxCell>
        <mxCell id="EW1axWE9C3zxqAU5lldP-79" value="Datos de signos vitales&#xa;Tiempo transcurrido&#xa;Costo por minuto" style="text;strokeColor=none;fillColor=none;align=left;verticalAlign=top;spacingLeft=4;spacingRight=4;overflow=hidden;rotatable=0;points=[[0,0.5],[1,0.5]];portConstraint=eastwest;" parent="EW1axWE9C3zxqAU5lldP-76" vertex="1">
          <mxGeometry y="78" width="140" height="62" as="geometry" />
        </mxCell>
        <mxCell id="EW1axWE9C3zxqAU5lldP-97" style="edgeStyle=orthogonalEdgeStyle;rounded=0;orthogonalLoop=1;jettySize=auto;html=1;entryX=-0.017;entryY=0.043;entryDx=0;entryDy=0;entryPerimeter=0;" parent="1" source="EW1axWE9C3zxqAU5lldP-53" target="EW1axWE9C3zxqAU5lldP-90" edge="1">
          <mxGeometry relative="1" as="geometry" />
        </mxCell>
        <mxCell id="EW1axWE9C3zxqAU5lldP-53" value="Expediente" style="swimlane;fontStyle=0;childLayout=stackLayout;horizontal=1;startSize=26;fillColor=none;horizontalStack=0;resizeParent=1;resizeParentMax=0;resizeLast=0;collapsible=1;marginBottom=0;" parent="1" vertex="1">
          <mxGeometry x="-310" y="360" width="180" height="160" as="geometry" />
        </mxCell>
        <mxCell id="EW1axWE9C3zxqAU5lldP-54" value="Pk codigoExpediente" style="text;strokeColor=none;fillColor=none;align=left;verticalAlign=top;spacingLeft=4;spacingRight=4;overflow=hidden;rotatable=0;points=[[0,0.5],[1,0.5]];portConstraint=eastwest;" parent="EW1axWE9C3zxqAU5lldP-53" vertex="1">
          <mxGeometry y="26" width="180" height="26" as="geometry" />
        </mxCell>
        <mxCell id="EW1axWE9C3zxqAU5lldP-55" value="FK idPacente" style="text;strokeColor=none;fillColor=none;align=left;verticalAlign=top;spacingLeft=4;spacingRight=4;overflow=hidden;rotatable=0;points=[[0,0.5],[1,0.5]];portConstraint=eastwest;" parent="EW1axWE9C3zxqAU5lldP-53" vertex="1">
          <mxGeometry y="52" width="180" height="28" as="geometry" />
        </mxCell>
        <mxCell id="EW1axWE9C3zxqAU5lldP-56" value="datos de paciente&#xa;Historial de consultas&#xa;Historial de uso de recursos&#xa;historial de cirugias de pacienteÂ &#xa;total de la deuda" style="text;strokeColor=none;fillColor=none;align=left;verticalAlign=top;spacingLeft=4;spacingRight=4;overflow=hidden;rotatable=0;points=[[0,0.5],[1,0.5]];portConstraint=eastwest;" parent="EW1axWE9C3zxqAU5lldP-53" vertex="1">
          <mxGeometry y="80" width="180" height="80" as="geometry" />
        </mxCell>
        <mxCell id="EW1axWE9C3zxqAU5lldP-91" value="Medicamento" style="swimlane;fontStyle=0;childLayout=stackLayout;horizontal=1;startSize=26;fillColor=none;horizontalStack=0;resizeParent=1;resizeParentMax=0;resizeLast=0;collapsible=1;marginBottom=0;" parent="1" vertex="1">
          <mxGeometry x="80" y="364" width="140" height="120" as="geometry" />
        </mxCell>
        <mxCell id="EW1axWE9C3zxqAU5lldP-92" value="PK codigo medicamento" style="text;strokeColor=none;fillColor=none;align=left;verticalAlign=top;spacingLeft=4;spacingRight=4;overflow=hidden;rotatable=0;points=[[0,0.5],[1,0.5]];portConstraint=eastwest;" parent="EW1axWE9C3zxqAU5lldP-91" vertex="1">
          <mxGeometry y="26" width="140" height="26" as="geometry" />
        </mxCell>
        <mxCell id="EW1axWE9C3zxqAU5lldP-93" value="FK id paciente" style="text;strokeColor=none;fillColor=none;align=left;verticalAlign=top;spacingLeft=4;spacingRight=4;overflow=hidden;rotatable=0;points=[[0,0.5],[1,0.5]];portConstraint=eastwest;" parent="EW1axWE9C3zxqAU5lldP-91" vertex="1">
          <mxGeometry y="52" width="140" height="26" as="geometry" />
        </mxCell>
        <mxCell id="EW1axWE9C3zxqAU5lldP-94" value="Cantidad suministrada&#xa;costo por unidad" style="text;strokeColor=none;fillColor=none;align=left;verticalAlign=top;spacingLeft=4;spacingRight=4;overflow=hidden;rotatable=0;points=[[0,0.5],[1,0.5]];portConstraint=eastwest;" parent="EW1axWE9C3zxqAU5lldP-91" vertex="1">
          <mxGeometry y="78" width="140" height="42" as="geometry" />
        </mxCell>
        <mxCell id="EW1axWE9C3zxqAU5lldP-57" value="Examenes" style="swimlane;fontStyle=0;childLayout=stackLayout;horizontal=1;startSize=26;fillColor=none;horizontalStack=0;resizeParent=1;resizeParentMax=0;resizeLast=0;collapsible=1;marginBottom=0;" parent="1" vertex="1">
          <mxGeometry x="-310" y="550" width="140" height="120" as="geometry" />
        </mxCell>
        <mxCell id="EW1axWE9C3zxqAU5lldP-58" value="Pk ID" style="text;strokeColor=none;fillColor=none;align=left;verticalAlign=top;spacingLeft=4;spacingRight=4;overflow=hidden;rotatable=0;points=[[0,0.5],[1,0.5]];portConstraint=eastwest;" parent="EW1axWE9C3zxqAU5lldP-57" vertex="1">
          <mxGeometry y="26" width="140" height="26" as="geometry" />
        </mxCell>
        <mxCell id="EW1axWE9C3zxqAU5lldP-59" value="FK idExpediente" style="text;strokeColor=none;fillColor=none;align=left;verticalAlign=top;spacingLeft=4;spacingRight=4;overflow=hidden;rotatable=0;points=[[0,0.5],[1,0.5]];portConstraint=eastwest;" parent="EW1axWE9C3zxqAU5lldP-57" vertex="1">
          <mxGeometry y="52" width="140" height="26" as="geometry" />
        </mxCell>
        <mxCell id="EW1axWE9C3zxqAU5lldP-60" value="Resultado&#xa;Costo" style="text;strokeColor=none;fillColor=none;align=left;verticalAlign=top;spacingLeft=4;spacingRight=4;overflow=hidden;rotatable=0;points=[[0,0.5],[1,0.5]];portConstraint=eastwest;" parent="EW1axWE9C3zxqAU5lldP-57" vertex="1">
          <mxGeometry y="78" width="140" height="42" as="geometry" />
        </mxCell>
        <mxCell id="EW1axWE9C3zxqAU5lldP-87" value="Factura" style="swimlane;fontStyle=0;childLayout=stackLayout;horizontal=1;startSize=26;fillColor=none;horizontalStack=0;resizeParent=1;resizeParentMax=0;resizeLast=0;collapsible=1;marginBottom=0;" parent="1" vertex="1">
          <mxGeometry x="-80" y="420" width="140" height="170" as="geometry" />
        </mxCell>
        <mxCell id="EW1axWE9C3zxqAU5lldP-88" value="PK codigo" style="text;strokeColor=none;fillColor=none;align=left;verticalAlign=top;spacingLeft=4;spacingRight=4;overflow=hidden;rotatable=0;points=[[0,0.5],[1,0.5]];portConstraint=eastwest;" parent="EW1axWE9C3zxqAU5lldP-87" vertex="1">
          <mxGeometry y="26" width="140" height="26" as="geometry" />
        </mxCell>
        <mxCell id="EW1axWE9C3zxqAU5lldP-89" value="FK idPaciente" style="text;strokeColor=none;fillColor=none;align=left;verticalAlign=top;spacingLeft=4;spacingRight=4;overflow=hidden;rotatable=0;points=[[0,0.5],[1,0.5]];portConstraint=eastwest;" parent="EW1axWE9C3zxqAU5lldP-87" vertex="1">
          <mxGeometry y="52" width="140" height="26" as="geometry" />
        </mxCell>
        <mxCell id="EW1axWE9C3zxqAU5lldP-90" value="fecha&#xa;&#xa;Metodo de pago&#xa;&#xa;total a pagarÂ &#xa;" style="text;strokeColor=none;fillColor=none;align=left;verticalAlign=top;spacingLeft=4;spacingRight=4;overflow=hidden;rotatable=0;points=[[0,0.5],[1,0.5]];portConstraint=eastwest;" parent="EW1axWE9C3zxqAU5lldP-87" vertex="1">
          <mxGeometry y="78" width="140" height="92" as="geometry" />
        </mxCell>
        <mxCell id="EW1axWE9C3zxqAU5lldP-9" value="Hospital" style="swimlane;fontStyle=0;childLayout=stackLayout;horizontal=1;startSize=26;fillColor=none;horizontalStack=0;resizeParent=1;resizeParentMax=0;resizeLast=0;collapsible=1;marginBottom=0;" parent="1" vertex="1">
          <mxGeometry x="-140" y="-29" width="140" height="52" as="geometry" />
        </mxCell>
        <mxCell id="EW1axWE9C3zxqAU5lldP-10" value="PK nombre" style="text;strokeColor=none;fillColor=none;align=left;verticalAlign=top;spacingLeft=4;spacingRight=4;overflow=hidden;rotatable=0;points=[[0,0.5],[1,0.5]];portConstraint=eastwest;" parent="EW1axWE9C3zxqAU5lldP-9" vertex="1">
          <mxGeometry y="26" width="140" height="26" as="geometry" />
        </mxCell>
        <mxCell id="EW1axWE9C3zxqAU5lldP-98" value="EfermeraXSalaRecuperacion" style="swimlane;fontStyle=0;childLayout=stackLayout;horizontal=1;startSize=26;fillColor=none;horizontalStack=0;resizeParent=1;resizeParentMax=0;resizeLast=0;collapsible=1;marginBottom=0;" parent="1" vertex="1">
          <mxGeometry x="460" y="220" width="180" height="104" as="geometry" />
        </mxCell>
        <mxCell id="EW1axWE9C3zxqAU5lldP-99" value="PK numHab nombreEnfermera" style="text;strokeColor=none;fillColor=none;align=left;verticalAlign=top;spacingLeft=4;spacingRight=4;overflow=hidden;rotatable=0;points=[[0,0.5],[1,0.5]];portConstraint=eastwest;" parent="EW1axWE9C3zxqAU5lldP-98" vertex="1">
          <mxGeometry y="26" width="180" height="26" as="geometry" />
        </mxCell>
        <mxCell id="EW1axWE9C3zxqAU5lldP-100" value="FK Nombre Enfermera" style="text;strokeColor=none;fillColor=none;align=left;verticalAlign=top;spacingLeft=4;spacingRight=4;overflow=hidden;rotatable=0;points=[[0,0.5],[1,0.5]];portConstraint=eastwest;" parent="EW1axWE9C3zxqAU5lldP-98" vertex="1">
          <mxGeometry y="52" width="180" height="26" as="geometry" />
        </mxCell>
        <mxCell id="EW1axWE9C3zxqAU5lldP-101" value="Fk numsalaRecuperacion" style="text;strokeColor=none;fillColor=none;align=left;verticalAlign=top;spacingLeft=4;spacingRight=4;overflow=hidden;rotatable=0;points=[[0,0.5],[1,0.5]];portConstraint=eastwest;" parent="EW1axWE9C3zxqAU5lldP-98" vertex="1">
          <mxGeometry y="78" width="180" height="26" as="geometry" />
        </mxCell>
        <mxCell id="EW1axWE9C3zxqAU5lldP-106" style="edgeStyle=orthogonalEdgeStyle;rounded=0;orthogonalLoop=1;jettySize=auto;html=1;entryX=0;entryY=0.5;entryDx=0;entryDy=0;" parent="1" source="EW1axWE9C3zxqAU5lldP-70" target="EW1axWE9C3zxqAU5lldP-100" edge="1">
          <mxGeometry relative="1" as="geometry" />
        </mxCell>
        <mxCell id="EW1axWE9C3zxqAU5lldP-107" style="edgeStyle=orthogonalEdgeStyle;rounded=0;orthogonalLoop=1;jettySize=auto;html=1;entryX=0;entryY=0.5;entryDx=0;entryDy=0;" parent="1" source="EW1axWE9C3zxqAU5lldP-78" target="EW1axWE9C3zxqAU5lldP-105" edge="1">
          <mxGeometry relative="1" as="geometry" />
        </mxCell>
        <mxCell id="EW1axWE9C3zxqAU5lldP-102" value="EnfermeraXHabitaciÃ³n" style="swimlane;fontStyle=0;childLayout=stackLayout;horizontal=1;startSize=26;fillColor=none;horizontalStack=0;resizeParent=1;resizeParentMax=0;resizeLast=0;collapsible=1;marginBottom=0;" parent="1" vertex="1">
          <mxGeometry x="480" y="404" width="160" height="104" as="geometry" />
        </mxCell>
        <mxCell id="EW1axWE9C3zxqAU5lldP-103" value="PKÂ  numHab NombEnferme" style="text;strokeColor=none;fillColor=none;align=left;verticalAlign=top;spacingLeft=4;spacingRight=4;overflow=hidden;rotatable=0;points=[[0,0.5],[1,0.5]];portConstraint=eastwest;" parent="EW1axWE9C3zxqAU5lldP-102" vertex="1">
          <mxGeometry y="26" width="160" height="26" as="geometry" />
        </mxCell>
        <mxCell id="EW1axWE9C3zxqAU5lldP-104" value="FK nombreEnfermera" style="text;strokeColor=none;fillColor=none;align=left;verticalAlign=top;spacingLeft=4;spacingRight=4;overflow=hidden;rotatable=0;points=[[0,0.5],[1,0.5]];portConstraint=eastwest;" parent="EW1axWE9C3zxqAU5lldP-102" vertex="1">
          <mxGeometry y="52" width="160" height="26" as="geometry" />
        </mxCell>
        <mxCell id="EW1axWE9C3zxqAU5lldP-105" value="FK numHabitacion" style="text;strokeColor=none;fillColor=none;align=left;verticalAlign=top;spacingLeft=4;spacingRight=4;overflow=hidden;rotatable=0;points=[[0,0.5],[1,0.5]];portConstraint=eastwest;" parent="EW1axWE9C3zxqAU5lldP-102" vertex="1">
          <mxGeometry y="78" width="160" height="26" as="geometry" />
        </mxCell>
        <mxCell id="EW1axWE9C3zxqAU5lldP-108" style="edgeStyle=orthogonalEdgeStyle;rounded=0;orthogonalLoop=1;jettySize=auto;html=1;entryX=0.005;entryY=0.229;entryDx=0;entryDy=0;entryPerimeter=0;" parent="1" source="EW1axWE9C3zxqAU5lldP-104" target="EW1axWE9C3zxqAU5lldP-74" edge="1">
          <mxGeometry relative="1" as="geometry" />
        </mxCell>
        <mxCell id="EW1axWE9C3zxqAU5lldP-109" style="edgeStyle=orthogonalEdgeStyle;rounded=0;orthogonalLoop=1;jettySize=auto;html=1;entryX=0;entryY=0.5;entryDx=0;entryDy=0;" parent="1" source="EW1axWE9C3zxqAU5lldP-100" target="EW1axWE9C3zxqAU5lldP-73" edge="1">
          <mxGeometry relative="1" as="geometry" />
        </mxCell>
        <mxCell id="EW1axWE9C3zxqAU5lldP-72" value="Enfermera" style="swimlane;fontStyle=0;childLayout=stackLayout;horizontal=1;startSize=26;fillColor=none;horizontalStack=0;resizeParent=1;resizeParentMax=0;resizeLast=0;collapsible=1;marginBottom=0;" parent="1" vertex="1">
          <mxGeometry x="680" y="300" width="140" height="104" as="geometry" />
        </mxCell>
        <mxCell id="EW1axWE9C3zxqAU5lldP-73" value="PK nombre" style="text;strokeColor=none;fillColor=none;align=left;verticalAlign=top;spacingLeft=4;spacingRight=4;overflow=hidden;rotatable=0;points=[[0,0.5],[1,0.5]];portConstraint=eastwest;" parent="EW1axWE9C3zxqAU5lldP-72" vertex="1">
          <mxGeometry y="26" width="140" height="26" as="geometry" />
        </mxCell>
        <mxCell id="EW1axWE9C3zxqAU5lldP-74" value="turno" style="text;strokeColor=none;fillColor=none;align=left;verticalAlign=top;spacingLeft=4;spacingRight=4;overflow=hidden;rotatable=0;points=[[0,0.5],[1,0.5]];portConstraint=eastwest;" parent="EW1axWE9C3zxqAU5lldP-72" vertex="1">
          <mxGeometry y="52" width="140" height="26" as="geometry" />
        </mxCell>
        <mxCell id="EW1axWE9C3zxqAU5lldP-75" value="Rondas" style="text;strokeColor=none;fillColor=none;align=left;verticalAlign=top;spacingLeft=4;spacingRight=4;overflow=hidden;rotatable=0;points=[[0,0.5],[1,0.5]];portConstraint=eastwest;" parent="EW1axWE9C3zxqAU5lldP-72" vertex="1">
          <mxGeometry y="78" width="140" height="26" as="geometry" />
        </mxCell>
        <mxCell id="EW1axWE9C3zxqAU5lldP-30" value="Doctor" style="swimlane;fontStyle=0;childLayout=stackLayout;horizontal=1;startSize=26;fillColor=none;horizontalStack=0;resizeParent=1;resizeParentMax=0;resizeLast=0;collapsible=1;marginBottom=0;" parent="1" vertex="1">
          <mxGeometry x="320" y="-71" width="140" height="130" as="geometry" />
        </mxCell>
        <mxCell id="EW1axWE9C3zxqAU5lldP-31" value="PkÂ  id" style="text;strokeColor=none;fillColor=none;align=left;verticalAlign=top;spacingLeft=4;spacingRight=4;overflow=hidden;rotatable=0;points=[[0,0.5],[1,0.5]];portConstraint=eastwest;" parent="EW1axWE9C3zxqAU5lldP-30" vertex="1">
          <mxGeometry y="26" width="140" height="26" as="geometry" />
        </mxCell>
        <mxCell id="EW1axWE9C3zxqAU5lldP-32" value="Fk idCirugia" style="text;strokeColor=none;fillColor=none;align=left;verticalAlign=top;spacingLeft=4;spacingRight=4;overflow=hidden;rotatable=0;points=[[0,0.5],[1,0.5]];portConstraint=eastwest;" parent="EW1axWE9C3zxqAU5lldP-30" vertex="1">
          <mxGeometry y="52" width="140" height="26" as="geometry" />
        </mxCell>
        <mxCell id="EW1axWE9C3zxqAU5lldP-33" value="FK numSalaCirugia&#xa;&#xa;Cirugias atendidas" style="text;strokeColor=none;fillColor=none;align=left;verticalAlign=top;spacingLeft=4;spacingRight=4;overflow=hidden;rotatable=0;points=[[0,0.5],[1,0.5]];portConstraint=eastwest;" parent="EW1axWE9C3zxqAU5lldP-30" vertex="1">
          <mxGeometry y="78" width="140" height="52" as="geometry" />
        </mxCell>
        <mxCell id="EW1axWE9C3zxqAU5lldP-34" value="Asistente" style="swimlane;fontStyle=0;childLayout=stackLayout;horizontal=1;startSize=23;fillColor=none;horizontalStack=0;resizeParent=1;resizeParentMax=0;resizeLast=0;collapsible=1;marginBottom=0;" parent="1" vertex="1">
          <mxGeometry x="520" y="-80" width="140" height="101" as="geometry" />
        </mxCell>
        <mxCell id="EW1axWE9C3zxqAU5lldP-35" value="PK id" style="text;strokeColor=none;fillColor=none;align=left;verticalAlign=top;spacingLeft=4;spacingRight=4;overflow=hidden;rotatable=0;points=[[0,0.5],[1,0.5]];portConstraint=eastwest;" parent="EW1axWE9C3zxqAU5lldP-34" vertex="1">
          <mxGeometry y="23" width="140" height="26" as="geometry" />
        </mxCell>
        <mxCell id="EW1axWE9C3zxqAU5lldP-36" value="Fk idDoctor" style="text;strokeColor=none;fillColor=none;align=left;verticalAlign=top;spacingLeft=4;spacingRight=4;overflow=hidden;rotatable=0;points=[[0,0.5],[1,0.5]];portConstraint=eastwest;" parent="EW1axWE9C3zxqAU5lldP-34" vertex="1">
          <mxGeometry y="49" width="140" height="26" as="geometry" />
        </mxCell>
        <mxCell id="EW1axWE9C3zxqAU5lldP-37" value="Cirugias atendidas" style="text;strokeColor=none;fillColor=none;align=left;verticalAlign=top;spacingLeft=4;spacingRight=4;overflow=hidden;rotatable=0;points=[[0,0.5],[1,0.5]];portConstraint=eastwest;" parent="EW1axWE9C3zxqAU5lldP-34" vertex="1">
          <mxGeometry y="75" width="140" height="26" as="geometry" />
        </mxCell>
        <mxCell id="EW1axWE9C3zxqAU5lldP-38" value="Enfermero" style="swimlane;fontStyle=0;childLayout=stackLayout;horizontal=1;startSize=23;fillColor=none;horizontalStack=0;resizeParent=1;resizeParentMax=0;resizeLast=0;collapsible=1;marginBottom=0;" parent="1" vertex="1">
          <mxGeometry x="526" y="26" width="140" height="94" as="geometry" />
        </mxCell>
        <mxCell id="EW1axWE9C3zxqAU5lldP-39" value="PK id" style="text;strokeColor=none;fillColor=none;align=left;verticalAlign=top;spacingLeft=4;spacingRight=4;overflow=hidden;rotatable=0;points=[[0,0.5],[1,0.5]];portConstraint=eastwest;" parent="EW1axWE9C3zxqAU5lldP-38" vertex="1">
          <mxGeometry y="23" width="140" height="19" as="geometry" />
        </mxCell>
        <mxCell id="EW1axWE9C3zxqAU5lldP-40" value="FK idDoctor" style="text;strokeColor=none;fillColor=none;align=left;verticalAlign=top;spacingLeft=4;spacingRight=4;overflow=hidden;rotatable=0;points=[[0,0.5],[1,0.5]];portConstraint=eastwest;" parent="EW1axWE9C3zxqAU5lldP-38" vertex="1">
          <mxGeometry y="42" width="140" height="26" as="geometry" />
        </mxCell>
        <mxCell id="EW1axWE9C3zxqAU5lldP-41" value="cirugias atendidas" style="text;strokeColor=none;fillColor=none;align=left;verticalAlign=top;spacingLeft=4;spacingRight=4;overflow=hidden;rotatable=0;points=[[0,0.5],[1,0.5]];portConstraint=eastwest;" parent="EW1axWE9C3zxqAU5lldP-38" vertex="1">
          <mxGeometry y="68" width="140" height="26" as="geometry" />
        </mxCell>
        <mxCell id="2BNAaccvK22he9K3C34C-2" value="Computadora" style="swimlane;fontStyle=0;childLayout=stackLayout;horizontal=1;startSize=26;fillColor=none;horizontalStack=0;resizeParent=1;resizeParentMax=0;resizeLast=0;collapsible=1;marginBottom=0;" parent="1" vertex="1">
          <mxGeometry x="-1490" y="332" width="140" height="104" as="geometry" />
        </mxCell>
        <mxCell id="2BNAaccvK22he9K3C34C-3" value="id" style="text;strokeColor=none;fillColor=none;align=left;verticalAlign=top;spacingLeft=4;spacingRight=4;overflow=hidden;rotatable=0;points=[[0,0.5],[1,0.5]];portConstraint=eastwest;" parent="2BNAaccvK22he9K3C34C-2" vertex="1">
          <mxGeometry y="26" width="140" height="26" as="geometry" />
        </mxCell>
        <mxCell id="2BNAaccvK22he9K3C34C-4" value="FK nombreMarca" style="text;strokeColor=none;fillColor=none;align=left;verticalAlign=top;spacingLeft=4;spacingRight=4;overflow=hidden;rotatable=0;points=[[0,0.5],[1,0.5]];portConstraint=eastwest;" parent="2BNAaccvK22he9K3C34C-2" vertex="1">
          <mxGeometry y="52" width="140" height="26" as="geometry" />
        </mxCell>
        <mxCell id="2BNAaccvK22he9K3C34C-5" value="Item 3" style="text;strokeColor=none;fillColor=none;align=left;verticalAlign=top;spacingLeft=4;spacingRight=4;overflow=hidden;rotatable=0;points=[[0,0.5],[1,0.5]];portConstraint=eastwest;" parent="2BNAaccvK22he9K3C34C-2" vertex="1">
          <mxGeometry y="78" width="140" height="26" as="geometry" />
        </mxCell>
        <mxCell id="2BNAaccvK22he9K3C34C-10" value="Cobro" style="swimlane;fontStyle=0;childLayout=stackLayout;horizontal=1;startSize=26;fillColor=none;horizontalStack=0;resizeParent=1;resizeParentMax=0;resizeLast=0;collapsible=1;marginBottom=0;" parent="1" vertex="1">
          <mxGeometry x="-1160" y="335" width="140" height="156" as="geometry" />
        </mxCell>
        <mxCell id="2BNAaccvK22he9K3C34C-11" value="PKÂ  cobroId" style="text;strokeColor=none;fillColor=none;align=left;verticalAlign=top;spacingLeft=4;spacingRight=4;overflow=hidden;rotatable=0;points=[[0,0.5],[1,0.5]];portConstraint=eastwest;" parent="2BNAaccvK22he9K3C34C-10" vertex="1">
          <mxGeometry y="26" width="140" height="26" as="geometry" />
        </mxCell>
        <mxCell id="2BNAaccvK22he9K3C34C-12" value="Item 2" style="text;strokeColor=none;fillColor=none;align=left;verticalAlign=top;spacingLeft=4;spacingRight=4;overflow=hidden;rotatable=0;points=[[0,0.5],[1,0.5]];portConstraint=eastwest;" parent="2BNAaccvK22he9K3C34C-10" vertex="1">
          <mxGeometry y="52" width="140" height="26" as="geometry" />
        </mxCell>
        <mxCell id="2BNAaccvK22he9K3C34C-13" value="monto" style="text;strokeColor=none;fillColor=none;align=left;verticalAlign=top;spacingLeft=4;spacingRight=4;overflow=hidden;rotatable=0;points=[[0,0.5],[1,0.5]];portConstraint=eastwest;" parent="2BNAaccvK22he9K3C34C-10" vertex="1">
          <mxGeometry y="78" width="140" height="26" as="geometry" />
        </mxCell>
        <mxCell id="2BNAaccvK22he9K3C34C-49" value="FK clientID" style="text;strokeColor=none;fillColor=none;align=left;verticalAlign=top;spacingLeft=4;spacingRight=4;overflow=hidden;rotatable=0;points=[[0,0.5],[1,0.5]];portConstraint=eastwest;" parent="2BNAaccvK22he9K3C34C-10" vertex="1">
          <mxGeometry y="104" width="140" height="26" as="geometry" />
        </mxCell>
        <mxCell id="TkcTn7V3Rc2BHI-xNNhM-5" value="fecha" style="text;strokeColor=none;fillColor=none;align=left;verticalAlign=top;spacingLeft=4;spacingRight=4;overflow=hidden;rotatable=0;points=[[0,0.5],[1,0.5]];portConstraint=eastwest;" parent="2BNAaccvK22he9K3C34C-10" vertex="1">
          <mxGeometry y="130" width="140" height="26" as="geometry" />
        </mxCell>
        <mxCell id="2BNAaccvK22he9K3C34C-15" value="Marca" style="swimlane;fontStyle=0;childLayout=stackLayout;horizontal=1;startSize=26;fillColor=none;horizontalStack=0;resizeParent=1;resizeParentMax=0;resizeLast=0;collapsible=1;marginBottom=0;" parent="1" vertex="1">
          <mxGeometry x="-1320" y="332" width="140" height="104" as="geometry" />
        </mxCell>
        <mxCell id="2BNAaccvK22he9K3C34C-16" value="PKÂ  nombreMarca" style="text;strokeColor=none;fillColor=none;align=left;verticalAlign=top;spacingLeft=4;spacingRight=4;overflow=hidden;rotatable=0;points=[[0,0.5],[1,0.5]];portConstraint=eastwest;" parent="2BNAaccvK22he9K3C34C-15" vertex="1">
          <mxGeometry y="26" width="140" height="26" as="geometry" />
        </mxCell>
        <mxCell id="2BNAaccvK22he9K3C34C-17" value="periodoGracia" style="text;strokeColor=none;fillColor=none;align=left;verticalAlign=top;spacingLeft=4;spacingRight=4;overflow=hidden;rotatable=0;points=[[0,0.5],[1,0.5]];portConstraint=eastwest;" parent="2BNAaccvK22he9K3C34C-15" vertex="1">
          <mxGeometry y="52" width="140" height="26" as="geometry" />
        </mxCell>
        <mxCell id="2BNAaccvK22he9K3C34C-18" value="FKÂ  cobroId" style="text;strokeColor=none;fillColor=none;align=left;verticalAlign=top;spacingLeft=4;spacingRight=4;overflow=hidden;rotatable=0;points=[[0,0.5],[1,0.5]];portConstraint=eastwest;" parent="2BNAaccvK22he9K3C34C-15" vertex="1">
          <mxGeometry y="78" width="140" height="26" as="geometry" />
        </mxCell>
        <mxCell id="2BNAaccvK22he9K3C34C-19" value="Cliente" style="swimlane;fontStyle=0;childLayout=stackLayout;horizontal=1;startSize=26;fillColor=none;horizontalStack=0;resizeParent=1;resizeParentMax=0;resizeLast=0;collapsible=1;marginBottom=0;" parent="1" vertex="1">
          <mxGeometry x="-1000" y="330" width="140" height="182" as="geometry" />
        </mxCell>
        <mxCell id="2BNAaccvK22he9K3C34C-20" value="PKÂ  clientID" style="text;strokeColor=none;fillColor=none;align=left;verticalAlign=top;spacingLeft=4;spacingRight=4;overflow=hidden;rotatable=0;points=[[0,0.5],[1,0.5]];portConstraint=eastwest;" parent="2BNAaccvK22he9K3C34C-19" vertex="1">
          <mxGeometry y="26" width="140" height="26" as="geometry" />
        </mxCell>
        <mxCell id="2BNAaccvK22he9K3C34C-44" value="Nombre" style="text;strokeColor=none;fillColor=none;align=left;verticalAlign=top;spacingLeft=4;spacingRight=4;overflow=hidden;rotatable=0;points=[[0,0.5],[1,0.5]];portConstraint=eastwest;" parent="2BNAaccvK22he9K3C34C-19" vertex="1">
          <mxGeometry y="52" width="140" height="26" as="geometry" />
        </mxCell>
        <mxCell id="2BNAaccvK22he9K3C34C-21" value="telefono" style="text;strokeColor=none;fillColor=none;align=left;verticalAlign=top;spacingLeft=4;spacingRight=4;overflow=hidden;rotatable=0;points=[[0,0.5],[1,0.5]];portConstraint=eastwest;" parent="2BNAaccvK22he9K3C34C-19" vertex="1">
          <mxGeometry y="78" width="140" height="26" as="geometry" />
        </mxCell>
        <mxCell id="2BNAaccvK22he9K3C34C-22" value="Email" style="text;strokeColor=none;fillColor=none;align=left;verticalAlign=top;spacingLeft=4;spacingRight=4;overflow=hidden;rotatable=0;points=[[0,0.5],[1,0.5]];portConstraint=eastwest;" parent="2BNAaccvK22he9K3C34C-19" vertex="1">
          <mxGeometry y="104" width="140" height="26" as="geometry" />
        </mxCell>
        <mxCell id="TkcTn7V3Rc2BHI-xNNhM-7" value="FKÂ  servicioId" style="text;strokeColor=none;fillColor=none;align=left;verticalAlign=top;spacingLeft=4;spacingRight=4;overflow=hidden;rotatable=0;points=[[0,0.5],[1,0.5]];portConstraint=eastwest;" parent="2BNAaccvK22he9K3C34C-19" vertex="1">
          <mxGeometry y="130" width="140" height="26" as="geometry" />
        </mxCell>
        <mxCell id="TkcTn7V3Rc2BHI-xNNhM-8" value="Categoria" style="text;strokeColor=none;fillColor=none;align=left;verticalAlign=top;spacingLeft=4;spacingRight=4;overflow=hidden;rotatable=0;points=[[0,0.5],[1,0.5]];portConstraint=eastwest;" parent="2BNAaccvK22he9K3C34C-19" vertex="1">
          <mxGeometry y="156" width="140" height="26" as="geometry" />
        </mxCell>
        <mxCell id="2BNAaccvK22he9K3C34C-28" value="AyudaSistemaOperat" style="swimlane;fontStyle=0;childLayout=stackLayout;horizontal=1;startSize=26;fillColor=none;horizontalStack=0;resizeParent=1;resizeParentMax=0;resizeLast=0;collapsible=1;marginBottom=0;" parent="1" vertex="1">
          <mxGeometry x="-1020" y="794" width="140" height="78" as="geometry" />
        </mxCell>
        <mxCell id="2BNAaccvK22he9K3C34C-29" value="PKÂ  ayudaId" style="text;strokeColor=none;fillColor=none;align=left;verticalAlign=top;spacingLeft=4;spacingRight=4;overflow=hidden;rotatable=0;points=[[0,0.5],[1,0.5]];portConstraint=eastwest;" parent="2BNAaccvK22he9K3C34C-28" vertex="1">
          <mxGeometry y="26" width="140" height="26" as="geometry" />
        </mxCell>
        <mxCell id="2BNAaccvK22he9K3C34C-30" value="nivel" style="text;strokeColor=none;fillColor=none;align=left;verticalAlign=top;spacingLeft=4;spacingRight=4;overflow=hidden;rotatable=0;points=[[0,0.5],[1,0.5]];portConstraint=eastwest;" parent="2BNAaccvK22he9K3C34C-28" vertex="1">
          <mxGeometry y="52" width="140" height="26" as="geometry" />
        </mxCell>
        <mxCell id="2BNAaccvK22he9K3C34C-32" value="Configuracion" style="swimlane;fontStyle=0;childLayout=stackLayout;horizontal=1;startSize=26;fillColor=none;horizontalStack=0;resizeParent=1;resizeParentMax=0;resizeLast=0;collapsible=1;marginBottom=0;" parent="1" vertex="1">
          <mxGeometry x="-860" y="824" width="140" height="78" as="geometry" />
        </mxCell>
        <mxCell id="2BNAaccvK22he9K3C34C-33" value="PKÂ  confId" style="text;strokeColor=none;fillColor=none;align=left;verticalAlign=top;spacingLeft=4;spacingRight=4;overflow=hidden;rotatable=0;points=[[0,0.5],[1,0.5]];portConstraint=eastwest;" parent="2BNAaccvK22he9K3C34C-32" vertex="1">
          <mxGeometry y="26" width="140" height="26" as="geometry" />
        </mxCell>
        <mxCell id="2BNAaccvK22he9K3C34C-34" value="nivel" style="text;strokeColor=none;fillColor=none;align=left;verticalAlign=top;spacingLeft=4;spacingRight=4;overflow=hidden;rotatable=0;points=[[0,0.5],[1,0.5]];portConstraint=eastwest;" parent="2BNAaccvK22he9K3C34C-32" vertex="1">
          <mxGeometry y="52" width="140" height="26" as="geometry" />
        </mxCell>
        <mxCell id="2BNAaccvK22he9K3C34C-36" value="Servicio" style="swimlane;fontStyle=0;childLayout=stackLayout;horizontal=1;startSize=26;fillColor=none;horizontalStack=0;resizeParent=1;resizeParentMax=0;resizeLast=0;collapsible=1;marginBottom=0;" parent="1" vertex="1">
          <mxGeometry x="-1320" y="465" width="140" height="222" as="geometry" />
        </mxCell>
        <mxCell id="2BNAaccvK22he9K3C34C-37" value="PKÂ  Â servicioId" style="text;strokeColor=none;fillColor=none;align=left;verticalAlign=top;spacingLeft=4;spacingRight=4;overflow=hidden;rotatable=0;points=[[0,0.5],[1,0.5]];portConstraint=eastwest;" parent="2BNAaccvK22he9K3C34C-36" vertex="1">
          <mxGeometry y="26" width="140" height="26" as="geometry" />
        </mxCell>
        <mxCell id="2BNAaccvK22he9K3C34C-38" value="FKÂ  consultasId&#xa;&#xa;FKÂ  ayudaId&#xa;&#xa;FKÂ  confId&#xa;&#xa;FK problemId" style="text;strokeColor=none;fillColor=none;align=left;verticalAlign=top;spacingLeft=4;spacingRight=4;overflow=hidden;rotatable=0;points=[[0,0.5],[1,0.5]];portConstraint=eastwest;" parent="2BNAaccvK22he9K3C34C-36" vertex="1">
          <mxGeometry y="52" width="140" height="118" as="geometry" />
        </mxCell>
        <mxCell id="2BNAaccvK22he9K3C34C-39" value="categoria" style="text;strokeColor=none;fillColor=none;align=left;verticalAlign=top;spacingLeft=4;spacingRight=4;overflow=hidden;rotatable=0;points=[[0,0.5],[1,0.5]];portConstraint=eastwest;" parent="2BNAaccvK22he9K3C34C-36" vertex="1">
          <mxGeometry y="170" width="140" height="26" as="geometry" />
        </mxCell>
        <mxCell id="TkcTn7V3Rc2BHI-xNNhM-15" value="nivel" style="text;strokeColor=none;fillColor=none;align=left;verticalAlign=top;spacingLeft=4;spacingRight=4;overflow=hidden;rotatable=0;points=[[0,0.5],[1,0.5]];portConstraint=eastwest;" parent="2BNAaccvK22he9K3C34C-36" vertex="1">
          <mxGeometry y="196" width="140" height="26" as="geometry" />
        </mxCell>
        <mxCell id="2BNAaccvK22he9K3C34C-6" value="Consultas" style="swimlane;fontStyle=0;childLayout=stackLayout;horizontal=1;startSize=26;fillColor=none;horizontalStack=0;resizeParent=1;resizeParentMax=0;resizeLast=0;collapsible=1;marginBottom=0;" parent="1" vertex="1">
          <mxGeometry x="-1020" y="710" width="140" height="78" as="geometry" />
        </mxCell>
        <mxCell id="2BNAaccvK22he9K3C34C-7" value="PKÂ  consultasId" style="text;strokeColor=none;fillColor=none;align=left;verticalAlign=top;spacingLeft=4;spacingRight=4;overflow=hidden;rotatable=0;points=[[0,0.5],[1,0.5]];portConstraint=eastwest;" parent="2BNAaccvK22he9K3C34C-6" vertex="1">
          <mxGeometry y="26" width="140" height="26" as="geometry" />
        </mxCell>
        <mxCell id="2BNAaccvK22he9K3C34C-8" value="nivel" style="text;strokeColor=none;fillColor=none;align=left;verticalAlign=top;spacingLeft=4;spacingRight=4;overflow=hidden;rotatable=0;points=[[0,0.5],[1,0.5]];portConstraint=eastwest;" parent="2BNAaccvK22he9K3C34C-6" vertex="1">
          <mxGeometry y="52" width="140" height="26" as="geometry" />
        </mxCell>
        <mxCell id="2BNAaccvK22he9K3C34C-24" value="ProblemasTecnicos" style="swimlane;fontStyle=0;childLayout=stackLayout;horizontal=1;startSize=26;fillColor=none;horizontalStack=0;resizeParent=1;resizeParentMax=0;resizeLast=0;collapsible=1;marginBottom=0;" parent="1" vertex="1">
          <mxGeometry x="-860" y="732" width="140" height="78" as="geometry" />
        </mxCell>
        <mxCell id="2BNAaccvK22he9K3C34C-25" value="PKÂ  problemId" style="text;strokeColor=none;fillColor=none;align=left;verticalAlign=top;spacingLeft=4;spacingRight=4;overflow=hidden;rotatable=0;points=[[0,0.5],[1,0.5]];portConstraint=eastwest;" parent="2BNAaccvK22he9K3C34C-24" vertex="1">
          <mxGeometry y="26" width="140" height="26" as="geometry" />
        </mxCell>
        <mxCell id="2BNAaccvK22he9K3C34C-26" value="nivel" style="text;strokeColor=none;fillColor=none;align=left;verticalAlign=top;spacingLeft=4;spacingRight=4;overflow=hidden;rotatable=0;points=[[0,0.5],[1,0.5]];portConstraint=eastwest;" parent="2BNAaccvK22he9K3C34C-24" vertex="1">
          <mxGeometry y="52" width="140" height="26" as="geometry" />
        </mxCell>
        <mxCell id="TkcTn7V3Rc2BHI-xNNhM-9" value="Evaluacion" style="swimlane;fontStyle=0;childLayout=stackLayout;horizontal=1;startSize=26;fillColor=none;horizontalStack=0;resizeParent=1;resizeParentMax=0;resizeLast=0;collapsible=1;marginBottom=0;" parent="1" vertex="1">
          <mxGeometry x="-1490" y="470" width="140" height="156" as="geometry" />
        </mxCell>
        <mxCell id="TkcTn7V3Rc2BHI-xNNhM-10" value="PKÂ  id" style="text;strokeColor=none;fillColor=none;align=left;verticalAlign=top;spacingLeft=4;spacingRight=4;overflow=hidden;rotatable=0;points=[[0,0.5],[1,0.5]];portConstraint=eastwest;" parent="TkcTn7V3Rc2BHI-xNNhM-9" vertex="1">
          <mxGeometry y="26" width="140" height="26" as="geometry" />
        </mxCell>
        <mxCell id="TkcTn7V3Rc2BHI-xNNhM-11" value="FKÂ  clienteId" style="text;strokeColor=none;fillColor=none;align=left;verticalAlign=top;spacingLeft=4;spacingRight=4;overflow=hidden;rotatable=0;points=[[0,0.5],[1,0.5]];portConstraint=eastwest;" parent="TkcTn7V3Rc2BHI-xNNhM-9" vertex="1">
          <mxGeometry y="52" width="140" height="26" as="geometry" />
        </mxCell>
        <mxCell id="TkcTn7V3Rc2BHI-xNNhM-16" value="FKÂ  idServicio" style="text;strokeColor=none;fillColor=none;align=left;verticalAlign=top;spacingLeft=4;spacingRight=4;overflow=hidden;rotatable=0;points=[[0,0.5],[1,0.5]];portConstraint=eastwest;" parent="TkcTn7V3Rc2BHI-xNNhM-9" vertex="1">
          <mxGeometry y="78" width="140" height="26" as="geometry" />
        </mxCell>
        <mxCell id="TkcTn7V3Rc2BHI-xNNhM-13" value="calificacion" style="text;strokeColor=none;fillColor=none;align=left;verticalAlign=top;spacingLeft=4;spacingRight=4;overflow=hidden;rotatable=0;points=[[0,0.5],[1,0.5]];portConstraint=eastwest;" parent="TkcTn7V3Rc2BHI-xNNhM-9" vertex="1">
          <mxGeometry y="104" width="140" height="26" as="geometry" />
        </mxCell>
        <mxCell id="TkcTn7V3Rc2BHI-xNNhM-17" value="fecha" style="text;strokeColor=none;fillColor=none;align=left;verticalAlign=top;spacingLeft=4;spacingRight=4;overflow=hidden;rotatable=0;points=[[0,0.5],[1,0.5]];portConstraint=eastwest;" parent="TkcTn7V3Rc2BHI-xNNhM-9" vertex="1">
          <mxGeometry y="130" width="140" height="26" as="geometry" />
        </mxCell>
        <mxCell id="ceM1LvnE3krG-w8dis7R-1" value="Track" style="swimlane;fontStyle=0;childLayout=stackLayout;horizontal=1;startSize=26;fillColor=none;horizontalStack=0;resizeParent=1;resizeParentMax=0;resizeLast=0;collapsible=1;marginBottom=0;" parent="1" vertex="1">
          <mxGeometry x="-1600" y="-400" width="140" height="130" as="geometry" />
        </mxCell>
        <mxCell id="ceM1LvnE3krG-w8dis7R-2" value="PKÂ  Â nombre" style="text;strokeColor=none;fillColor=none;align=left;verticalAlign=top;spacingLeft=4;spacingRight=4;overflow=hidden;rotatable=0;points=[[0,0.5],[1,0.5]];portConstraint=eastwest;" parent="ceM1LvnE3krG-w8dis7R-1" vertex="1">
          <mxGeometry y="26" width="140" height="26" as="geometry" />
        </mxCell>
        <mxCell id="ceM1LvnE3krG-w8dis7R-3" value="FK cantanteID" style="text;strokeColor=none;fillColor=none;align=left;verticalAlign=top;spacingLeft=4;spacingRight=4;overflow=hidden;rotatable=0;points=[[0,0.5],[1,0.5]];portConstraint=eastwest;" parent="ceM1LvnE3krG-w8dis7R-1" vertex="1">
          <mxGeometry y="52" width="140" height="26" as="geometry" />
        </mxCell>
        <mxCell id="ceM1LvnE3krG-w8dis7R-4" value="FK categoriaID" style="text;strokeColor=none;fillColor=none;align=left;verticalAlign=top;spacingLeft=4;spacingRight=4;overflow=hidden;rotatable=0;points=[[0,0.5],[1,0.5]];portConstraint=eastwest;" parent="ceM1LvnE3krG-w8dis7R-1" vertex="1">
          <mxGeometry y="78" width="140" height="26" as="geometry" />
        </mxCell>
        <mxCell id="ceM1LvnE3krG-w8dis7R-48" value="Disponibilidad" style="text;strokeColor=none;fillColor=none;align=left;verticalAlign=top;spacingLeft=4;spacingRight=4;overflow=hidden;rotatable=0;points=[[0,0.5],[1,0.5]];portConstraint=eastwest;" parent="ceM1LvnE3krG-w8dis7R-1" vertex="1">
          <mxGeometry y="104" width="140" height="26" as="geometry" />
        </mxCell>
        <mxCell id="ceM1LvnE3krG-w8dis7R-34" style="edgeStyle=orthogonalEdgeStyle;rounded=0;orthogonalLoop=1;jettySize=auto;html=1;entryX=0;entryY=0.5;entryDx=0;entryDy=0;" parent="1" source="ceM1LvnE3krG-w8dis7R-5" target="ceM1LvnE3krG-w8dis7R-32" edge="1">
          <mxGeometry relative="1" as="geometry" />
        </mxCell>
        <mxCell id="ceM1LvnE3krG-w8dis7R-5" value="Cantante" style="swimlane;fontStyle=0;childLayout=stackLayout;horizontal=1;startSize=26;fillColor=none;horizontalStack=0;resizeParent=1;resizeParentMax=0;resizeLast=0;collapsible=1;marginBottom=0;" parent="1" vertex="1">
          <mxGeometry x="-1410" y="-403" width="140" height="104" as="geometry" />
        </mxCell>
        <mxCell id="ceM1LvnE3krG-w8dis7R-6" value="PK id" style="text;strokeColor=none;fillColor=none;align=left;verticalAlign=top;spacingLeft=4;spacingRight=4;overflow=hidden;rotatable=0;points=[[0,0.5],[1,0.5]];portConstraint=eastwest;" parent="ceM1LvnE3krG-w8dis7R-5" vertex="1">
          <mxGeometry y="26" width="140" height="26" as="geometry" />
        </mxCell>
        <mxCell id="ceM1LvnE3krG-w8dis7R-7" value="nombre" style="text;strokeColor=none;fillColor=none;align=left;verticalAlign=top;spacingLeft=4;spacingRight=4;overflow=hidden;rotatable=0;points=[[0,0.5],[1,0.5]];portConstraint=eastwest;" parent="ceM1LvnE3krG-w8dis7R-5" vertex="1">
          <mxGeometry y="52" width="140" height="26" as="geometry" />
        </mxCell>
        <mxCell id="ceM1LvnE3krG-w8dis7R-8" value="Apellido" style="text;strokeColor=none;fillColor=none;align=left;verticalAlign=top;spacingLeft=4;spacingRight=4;overflow=hidden;rotatable=0;points=[[0,0.5],[1,0.5]];portConstraint=eastwest;" parent="ceM1LvnE3krG-w8dis7R-5" vertex="1">
          <mxGeometry y="78" width="140" height="26" as="geometry" />
        </mxCell>
        <mxCell id="ceM1LvnE3krG-w8dis7R-9" value="Categoria" style="swimlane;fontStyle=0;childLayout=stackLayout;horizontal=1;startSize=26;fillColor=none;horizontalStack=0;resizeParent=1;resizeParentMax=0;resizeLast=0;collapsible=1;marginBottom=0;" parent="1" vertex="1">
          <mxGeometry x="-1010" y="-403" width="140" height="76" as="geometry" />
        </mxCell>
        <mxCell id="ceM1LvnE3krG-w8dis7R-10" value="PK nombre" style="text;strokeColor=none;fillColor=none;align=left;verticalAlign=top;spacingLeft=4;spacingRight=4;overflow=hidden;rotatable=0;points=[[0,0.5],[1,0.5]];portConstraint=eastwest;" parent="ceM1LvnE3krG-w8dis7R-9" vertex="1">
          <mxGeometry y="26" width="140" height="26" as="geometry" />
        </mxCell>
        <mxCell id="ceM1LvnE3krG-w8dis7R-12" value="precio" style="text;strokeColor=none;fillColor=none;align=left;verticalAlign=top;spacingLeft=4;spacingRight=4;overflow=hidden;rotatable=0;points=[[0,0.5],[1,0.5]];portConstraint=eastwest;" parent="ceM1LvnE3krG-w8dis7R-9" vertex="1">
          <mxGeometry y="52" width="140" height="24" as="geometry" />
        </mxCell>
        <mxCell id="ceM1LvnE3krG-w8dis7R-13" value="usuario" style="swimlane;fontStyle=0;childLayout=stackLayout;horizontal=1;startSize=26;fillColor=none;horizontalStack=0;resizeParent=1;resizeParentMax=0;resizeLast=0;collapsible=1;marginBottom=0;" parent="1" vertex="1">
          <mxGeometry x="-1420" y="-260" width="140" height="104" as="geometry" />
        </mxCell>
        <mxCell id="ceM1LvnE3krG-w8dis7R-14" value="PK id" style="text;strokeColor=none;fillColor=none;align=left;verticalAlign=top;spacingLeft=4;spacingRight=4;overflow=hidden;rotatable=0;points=[[0,0.5],[1,0.5]];portConstraint=eastwest;" parent="ceM1LvnE3krG-w8dis7R-13" vertex="1">
          <mxGeometry y="26" width="140" height="26" as="geometry" />
        </mxCell>
        <mxCell id="ceM1LvnE3krG-w8dis7R-15" value="FK tarjetaID" style="text;strokeColor=none;fillColor=none;align=left;verticalAlign=top;spacingLeft=4;spacingRight=4;overflow=hidden;rotatable=0;points=[[0,0.5],[1,0.5]];portConstraint=eastwest;" parent="ceM1LvnE3krG-w8dis7R-13" vertex="1">
          <mxGeometry y="52" width="140" height="26" as="geometry" />
        </mxCell>
        <mxCell id="ceM1LvnE3krG-w8dis7R-16" value="puntos" style="text;strokeColor=none;fillColor=none;align=left;verticalAlign=top;spacingLeft=4;spacingRight=4;overflow=hidden;rotatable=0;points=[[0,0.5],[1,0.5]];portConstraint=eastwest;" parent="ceM1LvnE3krG-w8dis7R-13" vertex="1">
          <mxGeometry y="78" width="140" height="26" as="geometry" />
        </mxCell>
        <mxCell id="ceM1LvnE3krG-w8dis7R-17" value="Tarjeta" style="swimlane;fontStyle=0;childLayout=stackLayout;horizontal=1;startSize=26;fillColor=none;horizontalStack=0;resizeParent=1;resizeParentMax=0;resizeLast=0;collapsible=1;marginBottom=0;" parent="1" vertex="1">
          <mxGeometry x="-1230" y="-260" width="140" height="130" as="geometry" />
        </mxCell>
        <mxCell id="ceM1LvnE3krG-w8dis7R-18" value="PKÂ  numero" style="text;strokeColor=none;fillColor=none;align=left;verticalAlign=top;spacingLeft=4;spacingRight=4;overflow=hidden;rotatable=0;points=[[0,0.5],[1,0.5]];portConstraint=eastwest;" parent="ceM1LvnE3krG-w8dis7R-17" vertex="1">
          <mxGeometry y="26" width="140" height="26" as="geometry" />
        </mxCell>
        <mxCell id="ceM1LvnE3krG-w8dis7R-19" value="FK usuarioID" style="text;strokeColor=none;fillColor=none;align=left;verticalAlign=top;spacingLeft=4;spacingRight=4;overflow=hidden;rotatable=0;points=[[0,0.5],[1,0.5]];portConstraint=eastwest;" parent="ceM1LvnE3krG-w8dis7R-17" vertex="1">
          <mxGeometry y="52" width="140" height="26" as="geometry" />
        </mxCell>
        <mxCell id="ceM1LvnE3krG-w8dis7R-20" value="FecjhaVencimiento" style="text;strokeColor=none;fillColor=none;align=left;verticalAlign=top;spacingLeft=4;spacingRight=4;overflow=hidden;rotatable=0;points=[[0,0.5],[1,0.5]];portConstraint=eastwest;" parent="ceM1LvnE3krG-w8dis7R-17" vertex="1">
          <mxGeometry y="78" width="140" height="26" as="geometry" />
        </mxCell>
        <mxCell id="ceM1LvnE3krG-w8dis7R-21" value="codigoSeguridad" style="text;strokeColor=none;fillColor=none;align=left;verticalAlign=top;spacingLeft=4;spacingRight=4;overflow=hidden;rotatable=0;points=[[0,0.5],[1,0.5]];portConstraint=eastwest;" parent="ceM1LvnE3krG-w8dis7R-17" vertex="1">
          <mxGeometry y="104" width="140" height="26" as="geometry" />
        </mxCell>
        <mxCell id="ceM1LvnE3krG-w8dis7R-22" value="Espera" style="swimlane;fontStyle=0;childLayout=stackLayout;horizontal=1;startSize=26;fillColor=none;horizontalStack=0;resizeParent=1;resizeParentMax=0;resizeLast=0;collapsible=1;marginBottom=0;" parent="1" vertex="1">
          <mxGeometry x="-1600" y="-250" width="140" height="104" as="geometry" />
        </mxCell>
        <mxCell id="ceM1LvnE3krG-w8dis7R-23" value="PK id" style="text;strokeColor=none;fillColor=none;align=left;verticalAlign=top;spacingLeft=4;spacingRight=4;overflow=hidden;rotatable=0;points=[[0,0.5],[1,0.5]];portConstraint=eastwest;" parent="ceM1LvnE3krG-w8dis7R-22" vertex="1">
          <mxGeometry y="26" width="140" height="26" as="geometry" />
        </mxCell>
        <mxCell id="ceM1LvnE3krG-w8dis7R-24" value="FKÂ  usuarioID" style="text;strokeColor=none;fillColor=none;align=left;verticalAlign=top;spacingLeft=4;spacingRight=4;overflow=hidden;rotatable=0;points=[[0,0.5],[1,0.5]];portConstraint=eastwest;" parent="ceM1LvnE3krG-w8dis7R-22" vertex="1">
          <mxGeometry y="52" width="140" height="26" as="geometry" />
        </mxCell>
        <mxCell id="ceM1LvnE3krG-w8dis7R-25" value="FKÂ  trackID" style="text;strokeColor=none;fillColor=none;align=left;verticalAlign=top;spacingLeft=4;spacingRight=4;overflow=hidden;rotatable=0;points=[[0,0.5],[1,0.5]];portConstraint=eastwest;" parent="ceM1LvnE3krG-w8dis7R-22" vertex="1">
          <mxGeometry y="78" width="140" height="26" as="geometry" />
        </mxCell>
        <mxCell id="ceM1LvnE3krG-w8dis7R-30" value="CantanteXCategoria" style="swimlane;fontStyle=0;childLayout=stackLayout;horizontal=1;startSize=26;fillColor=none;horizontalStack=0;resizeParent=1;resizeParentMax=0;resizeLast=0;collapsible=1;marginBottom=0;" parent="1" vertex="1">
          <mxGeometry x="-1210" y="-400" width="140" height="104" as="geometry" />
        </mxCell>
        <mxCell id="ceM1LvnE3krG-w8dis7R-31" value="PK id" style="text;strokeColor=none;fillColor=none;align=left;verticalAlign=top;spacingLeft=4;spacingRight=4;overflow=hidden;rotatable=0;points=[[0,0.5],[1,0.5]];portConstraint=eastwest;" parent="ceM1LvnE3krG-w8dis7R-30" vertex="1">
          <mxGeometry y="26" width="140" height="26" as="geometry" />
        </mxCell>
        <mxCell id="ceM1LvnE3krG-w8dis7R-32" value="FK CantanteID" style="text;strokeColor=none;fillColor=none;align=left;verticalAlign=top;spacingLeft=4;spacingRight=4;overflow=hidden;rotatable=0;points=[[0,0.5],[1,0.5]];portConstraint=eastwest;" parent="ceM1LvnE3krG-w8dis7R-30" vertex="1">
          <mxGeometry y="52" width="140" height="26" as="geometry" />
        </mxCell>
        <mxCell id="ceM1LvnE3krG-w8dis7R-33" value="FK CategoriaNombre" style="text;strokeColor=none;fillColor=none;align=left;verticalAlign=top;spacingLeft=4;spacingRight=4;overflow=hidden;rotatable=0;points=[[0,0.5],[1,0.5]];portConstraint=eastwest;" parent="ceM1LvnE3krG-w8dis7R-30" vertex="1">
          <mxGeometry y="78" width="140" height="26" as="geometry" />
        </mxCell>
        <mxCell id="ceM1LvnE3krG-w8dis7R-35" style="edgeStyle=orthogonalEdgeStyle;rounded=0;orthogonalLoop=1;jettySize=auto;html=1;entryX=1.085;entryY=0.385;entryDx=0;entryDy=0;entryPerimeter=0;" parent="1" source="ceM1LvnE3krG-w8dis7R-10" target="ceM1LvnE3krG-w8dis7R-33" edge="1">
          <mxGeometry relative="1" as="geometry" />
        </mxCell>
        <mxCell id="ceM1LvnE3krG-w8dis7R-47" style="edgeStyle=orthogonalEdgeStyle;rounded=0;orthogonalLoop=1;jettySize=auto;html=1;entryX=0;entryY=0.5;entryDx=0;entryDy=0;" parent="1" source="ceM1LvnE3krG-w8dis7R-36" target="ceM1LvnE3krG-w8dis7R-45" edge="1">
          <mxGeometry relative="1" as="geometry" />
        </mxCell>
        <mxCell id="ceM1LvnE3krG-w8dis7R-36" value="Compra" style="swimlane;fontStyle=0;childLayout=stackLayout;horizontal=1;startSize=26;fillColor=none;horizontalStack=0;resizeParent=1;resizeParentMax=0;resizeLast=0;collapsible=1;marginBottom=0;" parent="1" vertex="1">
          <mxGeometry x="-1430" y="-20" width="140" height="156" as="geometry" />
        </mxCell>
        <mxCell id="ceM1LvnE3krG-w8dis7R-37" value="PK id" style="text;strokeColor=none;fillColor=none;align=left;verticalAlign=top;spacingLeft=4;spacingRight=4;overflow=hidden;rotatable=0;points=[[0,0.5],[1,0.5]];portConstraint=eastwest;" parent="ceM1LvnE3krG-w8dis7R-36" vertex="1">
          <mxGeometry y="26" width="140" height="26" as="geometry" />
        </mxCell>
        <mxCell id="ceM1LvnE3krG-w8dis7R-39" value="FK trackID" style="text;strokeColor=none;fillColor=none;align=left;verticalAlign=top;spacingLeft=4;spacingRight=4;overflow=hidden;rotatable=0;points=[[0,0.5],[1,0.5]];portConstraint=eastwest;" parent="ceM1LvnE3krG-w8dis7R-36" vertex="1">
          <mxGeometry y="52" width="140" height="26" as="geometry" />
        </mxCell>
        <mxCell id="ceM1LvnE3krG-w8dis7R-53" value="fecha" style="text;strokeColor=none;fillColor=none;align=left;verticalAlign=top;spacingLeft=4;spacingRight=4;overflow=hidden;rotatable=0;points=[[0,0.5],[1,0.5]];portConstraint=eastwest;" parent="ceM1LvnE3krG-w8dis7R-36" vertex="1">
          <mxGeometry y="78" width="140" height="26" as="geometry" />
        </mxCell>
        <mxCell id="ceM1LvnE3krG-w8dis7R-54" value="Monto" style="text;strokeColor=none;fillColor=none;align=left;verticalAlign=top;spacingLeft=4;spacingRight=4;overflow=hidden;rotatable=0;points=[[0,0.5],[1,0.5]];portConstraint=eastwest;" parent="ceM1LvnE3krG-w8dis7R-36" vertex="1">
          <mxGeometry y="104" width="140" height="26" as="geometry" />
        </mxCell>
        <mxCell id="ceM1LvnE3krG-w8dis7R-60" value="FK usuarioId" style="text;strokeColor=none;fillColor=none;align=left;verticalAlign=top;spacingLeft=4;spacingRight=4;overflow=hidden;rotatable=0;points=[[0,0.5],[1,0.5]];portConstraint=eastwest;" parent="ceM1LvnE3krG-w8dis7R-36" vertex="1">
          <mxGeometry y="130" width="140" height="26" as="geometry" />
        </mxCell>
        <mxCell id="ceM1LvnE3krG-w8dis7R-42" value="CompraXUsuario" style="swimlane;fontStyle=0;childLayout=stackLayout;horizontal=1;startSize=26;fillColor=none;horizontalStack=0;resizeParent=1;resizeParentMax=0;resizeLast=0;collapsible=1;marginBottom=0;" parent="1" vertex="1">
          <mxGeometry x="-1430" y="-141" width="140" height="104" as="geometry" />
        </mxCell>
        <mxCell id="ceM1LvnE3krG-w8dis7R-43" value="PK id" style="text;strokeColor=none;fillColor=none;align=left;verticalAlign=top;spacingLeft=4;spacingRight=4;overflow=hidden;rotatable=0;points=[[0,0.5],[1,0.5]];portConstraint=eastwest;" parent="ceM1LvnE3krG-w8dis7R-42" vertex="1">
          <mxGeometry y="26" width="140" height="26" as="geometry" />
        </mxCell>
        <mxCell id="ceM1LvnE3krG-w8dis7R-44" value="FK usuarioId" style="text;strokeColor=none;fillColor=none;align=left;verticalAlign=top;spacingLeft=4;spacingRight=4;overflow=hidden;rotatable=0;points=[[0,0.5],[1,0.5]];portConstraint=eastwest;" parent="ceM1LvnE3krG-w8dis7R-42" vertex="1">
          <mxGeometry y="52" width="140" height="26" as="geometry" />
        </mxCell>
        <mxCell id="ceM1LvnE3krG-w8dis7R-45" value="FK compra ID" style="text;strokeColor=none;fillColor=none;align=left;verticalAlign=top;spacingLeft=4;spacingRight=4;overflow=hidden;rotatable=0;points=[[0,0.5],[1,0.5]];portConstraint=eastwest;" parent="ceM1LvnE3krG-w8dis7R-42" vertex="1">
          <mxGeometry y="78" width="140" height="26" as="geometry" />
        </mxCell>
        <mxCell id="ceM1LvnE3krG-w8dis7R-46" style="edgeStyle=orthogonalEdgeStyle;rounded=0;orthogonalLoop=1;jettySize=auto;html=1;exitX=0;exitY=0.5;exitDx=0;exitDy=0;entryX=0;entryY=0.5;entryDx=0;entryDy=0;" parent="1" source="ceM1LvnE3krG-w8dis7R-16" target="ceM1LvnE3krG-w8dis7R-44" edge="1">
          <mxGeometry relative="1" as="geometry" />
        </mxCell>
        <mxCell id="ceM1LvnE3krG-w8dis7R-49" value="Stock" style="swimlane;fontStyle=0;childLayout=stackLayout;horizontal=1;startSize=26;fillColor=none;horizontalStack=0;resizeParent=1;resizeParentMax=0;resizeLast=0;collapsible=1;marginBottom=0;" parent="1" vertex="1">
          <mxGeometry x="-1790" y="-390" width="140" height="78" as="geometry" />
        </mxCell>
        <mxCell id="ceM1LvnE3krG-w8dis7R-50" value="PK idÂ " style="text;strokeColor=none;fillColor=none;align=left;verticalAlign=top;spacingLeft=4;spacingRight=4;overflow=hidden;rotatable=0;points=[[0,0.5],[1,0.5]];portConstraint=eastwest;" parent="ceM1LvnE3krG-w8dis7R-49" vertex="1">
          <mxGeometry y="26" width="140" height="26" as="geometry" />
        </mxCell>
        <mxCell id="ceM1LvnE3krG-w8dis7R-51" value="FK trackID" style="text;strokeColor=none;fillColor=none;align=left;verticalAlign=top;spacingLeft=4;spacingRight=4;overflow=hidden;rotatable=0;points=[[0,0.5],[1,0.5]];portConstraint=eastwest;" parent="ceM1LvnE3krG-w8dis7R-49" vertex="1">
          <mxGeometry y="52" width="140" height="26" as="geometry" />
        </mxCell>
        <mxCell id="ceM1LvnE3krG-w8dis7R-55" value="Sugerencia" style="swimlane;fontStyle=0;childLayout=stackLayout;horizontal=1;startSize=26;fillColor=none;horizontalStack=0;resizeParent=1;resizeParentMax=0;resizeLast=0;collapsible=1;marginBottom=0;" parent="1" vertex="1">
          <mxGeometry x="-1670" y="-111" width="140" height="104" as="geometry" />
        </mxCell>
        <mxCell id="ceM1LvnE3krG-w8dis7R-56" value="PK id" style="text;strokeColor=none;fillColor=none;align=left;verticalAlign=top;spacingLeft=4;spacingRight=4;overflow=hidden;rotatable=0;points=[[0,0.5],[1,0.5]];portConstraint=eastwest;" parent="ceM1LvnE3krG-w8dis7R-55" vertex="1">
          <mxGeometry y="26" width="140" height="26" as="geometry" />
        </mxCell>
        <mxCell id="ceM1LvnE3krG-w8dis7R-57" value="FKÂ  usuarioID" style="text;strokeColor=none;fillColor=none;align=left;verticalAlign=top;spacingLeft=4;spacingRight=4;overflow=hidden;rotatable=0;points=[[0,0.5],[1,0.5]];portConstraint=eastwest;" parent="ceM1LvnE3krG-w8dis7R-55" vertex="1">
          <mxGeometry y="52" width="140" height="26" as="geometry" />
        </mxCell>
        <mxCell id="ceM1LvnE3krG-w8dis7R-58" value="FK trackID" style="text;strokeColor=none;fillColor=none;align=left;verticalAlign=top;spacingLeft=4;spacingRight=4;overflow=hidden;rotatable=0;points=[[0,0.5],[1,0.5]];portConstraint=eastwest;" parent="ceM1LvnE3krG-w8dis7R-55" vertex="1">
          <mxGeometry y="78" width="140" height="26" as="geometry" />
        </mxCell>
        <mxCell id="ceM1LvnE3krG-w8dis7R-61" value="List" style="swimlane;fontStyle=0;childLayout=stackLayout;horizontal=1;startSize=26;fillColor=none;horizontalStack=0;resizeParent=1;resizeParentMax=0;resizeLast=0;collapsible=1;marginBottom=0;" parent="1" vertex="1">
          <mxGeometry x="-1230" y="-89" width="140" height="104" as="geometry" />
        </mxCell>
        <mxCell id="ceM1LvnE3krG-w8dis7R-62" value="Pk id" style="text;strokeColor=none;fillColor=none;align=left;verticalAlign=top;spacingLeft=4;spacingRight=4;overflow=hidden;rotatable=0;points=[[0,0.5],[1,0.5]];portConstraint=eastwest;" parent="ceM1LvnE3krG-w8dis7R-61" vertex="1">
          <mxGeometry y="26" width="140" height="26" as="geometry" />
        </mxCell>
        <mxCell id="ceM1LvnE3krG-w8dis7R-63" value="fk idUsuario" style="text;strokeColor=none;fillColor=none;align=left;verticalAlign=top;spacingLeft=4;spacingRight=4;overflow=hidden;rotatable=0;points=[[0,0.5],[1,0.5]];portConstraint=eastwest;" parent="ceM1LvnE3krG-w8dis7R-61" vertex="1">
          <mxGeometry y="52" width="140" height="26" as="geometry" />
        </mxCell>
        <mxCell id="ceM1LvnE3krG-w8dis7R-64" value="fK trackNombre" style="text;strokeColor=none;fillColor=none;align=left;verticalAlign=top;spacingLeft=4;spacingRight=4;overflow=hidden;rotatable=0;points=[[0,0.5],[1,0.5]];portConstraint=eastwest;" parent="ceM1LvnE3krG-w8dis7R-61" vertex="1">
          <mxGeometry y="78" width="140" height="26" as="geometry" />
        </mxCell>
        <mxCell id="ceM1LvnE3krG-w8dis7R-65" value="CorreosPorEnviar" style="swimlane;fontStyle=0;childLayout=stackLayout;horizontal=1;startSize=26;fillColor=none;horizontalStack=0;resizeParent=1;resizeParentMax=0;resizeLast=0;collapsible=1;marginBottom=0;" parent="1" vertex="1">
          <mxGeometry x="-1800" y="-250" width="140" height="104" as="geometry" />
        </mxCell>
        <mxCell id="ceM1LvnE3krG-w8dis7R-66" value="PKÂ  id" style="text;strokeColor=none;fillColor=none;align=left;verticalAlign=top;spacingLeft=4;spacingRight=4;overflow=hidden;rotatable=0;points=[[0,0.5],[1,0.5]];portConstraint=eastwest;" parent="ceM1LvnE3krG-w8dis7R-65" vertex="1">
          <mxGeometry y="26" width="140" height="26" as="geometry" />
        </mxCell>
        <mxCell id="ceM1LvnE3krG-w8dis7R-67" value="FK idCliente" style="text;strokeColor=none;fillColor=none;align=left;verticalAlign=top;spacingLeft=4;spacingRight=4;overflow=hidden;rotatable=0;points=[[0,0.5],[1,0.5]];portConstraint=eastwest;" parent="ceM1LvnE3krG-w8dis7R-65" vertex="1">
          <mxGeometry y="52" width="140" height="26" as="geometry" />
        </mxCell>
        <mxCell id="ceM1LvnE3krG-w8dis7R-68" value="FK idTrack" style="text;strokeColor=none;fillColor=none;align=left;verticalAlign=top;spacingLeft=4;spacingRight=4;overflow=hidden;rotatable=0;points=[[0,0.5],[1,0.5]];portConstraint=eastwest;" parent="ceM1LvnE3krG-w8dis7R-65" vertex="1">
          <mxGeometry y="78" width="140" height="26" as="geometry" />
        </mxCell>
        <mxCell id="loltS8ejkLvPo0tQ4wPs-1" value="NiÃ±o" style="rounded=0;whiteSpace=wrap;html=1;" parent="1" vertex="1">
          <mxGeometry x="-2858.5" y="-389" width="120" height="62" as="geometry" />
        </mxCell>
        <mxCell id="loltS8ejkLvPo0tQ4wPs-2" value="solicitud/pedido" style="rounded=0;whiteSpace=wrap;html=1;" parent="1" vertex="1">
          <mxGeometry x="-2580" y="-342" width="120" height="60" as="geometry" />
        </mxCell>
        <mxCell id="loltS8ejkLvPo0tQ4wPs-3" value="Realiza" style="rhombus;whiteSpace=wrap;html=1;" parent="1" vertex="1">
          <mxGeometry x="-2690" y="-344" width="60" height="52" as="geometry" />
        </mxCell>
        <mxCell id="loltS8ejkLvPo0tQ4wPs-6" value="Juguete" style="rounded=0;whiteSpace=wrap;html=1;" parent="1" vertex="1">
          <mxGeometry x="-2390" y="-41.5" width="120" height="60" as="geometry" />
        </mxCell>
        <mxCell id="loltS8ejkLvPo0tQ4wPs-7" value="Contiene" style="rhombus;whiteSpace=wrap;html=1;" parent="1" vertex="1">
          <mxGeometry x="-2360" y="-233" width="60" height="50" as="geometry" />
        </mxCell>
        <mxCell id="loltS8ejkLvPo0tQ4wPs-8" value="ReporteComportamiento" style="rounded=0;whiteSpace=wrap;html=1;" parent="1" vertex="1">
          <mxGeometry x="-2866" y="-60" width="140" height="59.5" as="geometry" />
        </mxCell>
        <mxCell id="loltS8ejkLvPo0tQ4wPs-9" value="Duende" style="rounded=0;whiteSpace=wrap;html=1;" parent="1" vertex="1">
          <mxGeometry x="-2856" y="-204.5" width="120" height="60" as="geometry" />
        </mxCell>
        <mxCell id="loltS8ejkLvPo0tQ4wPs-10" value="Genera" style="rhombus;whiteSpace=wrap;html=1;" parent="1" vertex="1">
          <mxGeometry x="-2831" y="-133.5" width="70" height="51" as="geometry" />
        </mxCell>
        <mxCell id="loltS8ejkLvPo0tQ4wPs-11" value="contiene" style="rhombus;whiteSpace=wrap;html=1;" parent="1" vertex="1">
          <mxGeometry x="-2841" y="18.5" width="85" height="48" as="geometry" />
        </mxCell>
        <mxCell id="loltS8ejkLvPo0tQ4wPs-13" value="InfracciÃ³n" style="rounded=0;whiteSpace=wrap;html=1;" parent="1" vertex="1">
          <mxGeometry x="-2856" y="85.5" width="120" height="60" as="geometry" />
        </mxCell>
        <mxCell id="loltS8ejkLvPo0tQ4wPs-14" value="Monitorea" style="rhombus;whiteSpace=wrap;html=1;" parent="1" vertex="1">
          <mxGeometry x="-2832" y="-275" width="72" height="55" as="geometry" />
        </mxCell>
        <mxCell id="loltS8ejkLvPo0tQ4wPs-15" value="" style="ellipse;whiteSpace=wrap;html=1;aspect=fixed;" parent="1" vertex="1">
          <mxGeometry x="-2833.75" y="-473.5" width="70.5" height="70.5" as="geometry" />
        </mxCell>
        <mxCell id="loltS8ejkLvPo0tQ4wPs-16" value="&lt;font style=&quot;font-size: 10px&quot;&gt;posibilidad de recibir regalo&lt;/font&gt;" style="ellipse;whiteSpace=wrap;html=1;aspect=fixed;" parent="1" vertex="1">
          <mxGeometry x="-2827.25" y="-467" width="57.5" height="57.5" as="geometry" />
        </mxCell>
        <mxCell id="loltS8ejkLvPo0tQ4wPs-17" value="genera" style="rhombus;whiteSpace=wrap;html=1;" parent="1" vertex="1">
          <mxGeometry x="-2960" y="-193.5" width="80" height="60" as="geometry" />
        </mxCell>
        <mxCell id="loltS8ejkLvPo0tQ4wPs-18" value="NotificaciÃ³n de MalComportamiento" style="rounded=0;whiteSpace=wrap;html=1;" parent="1" vertex="1">
          <mxGeometry x="-3100" y="-199.5" width="120" height="60" as="geometry" />
        </mxCell>
        <mxCell id="loltS8ejkLvPo0tQ4wPs-19" value="fabrica" style="rounded=0;whiteSpace=wrap;html=1;" parent="1" vertex="1">
          <mxGeometry x="-2580" y="-190" width="120" height="60" as="geometry" />
        </mxCell>
        <mxCell id="loltS8ejkLvPo0tQ4wPs-20" value="Se envÃ­a a" style="rhombus;whiteSpace=wrap;html=1;" parent="1" vertex="1">
          <mxGeometry x="-2560" y="-275" width="70" height="75" as="geometry" />
        </mxCell>
        <mxCell id="loltS8ejkLvPo0tQ4wPs-21" value="dividida en" style="rhombus;whiteSpace=wrap;html=1;" parent="1" vertex="1">
          <mxGeometry x="-2561" y="-125" width="80" height="80" as="geometry" />
        </mxCell>
        <mxCell id="loltS8ejkLvPo0tQ4wPs-22" value="estaciÃ³n de trabajo" style="rounded=0;whiteSpace=wrap;html=1;" parent="1" vertex="1">
          <mxGeometry x="-2590" y="-36" width="120" height="60" as="geometry" />
        </mxCell>
        <mxCell id="loltS8ejkLvPo0tQ4wPs-23" value="trabaja en" style="rhombus;whiteSpace=wrap;html=1;" parent="1" vertex="1">
          <mxGeometry x="-2710" y="-213.5" width="80" height="80" as="geometry" />
        </mxCell>
        <mxCell id="loltS8ejkLvPo0tQ4wPs-24" value="" style="endArrow=none;html=1;exitX=0.5;exitY=1;exitDx=0;exitDy=0;entryX=0;entryY=0.5;entryDx=0;entryDy=0;" parent="1" source="loltS8ejkLvPo0tQ4wPs-23" target="loltS8ejkLvPo0tQ4wPs-22" edge="1">
          <mxGeometry width="50" height="50" relative="1" as="geometry">
            <mxPoint x="-2640" y="20" as="sourcePoint" />
            <mxPoint x="-2590" y="-30" as="targetPoint" />
            <Array as="points">
              <mxPoint x="-2670" y="-6" />
            </Array>
          </mxGeometry>
        </mxCell>
        <mxCell id="loltS8ejkLvPo0tQ4wPs-25" value="" style="endArrow=none;html=1;exitX=1;exitY=0.5;exitDx=0;exitDy=0;entryX=0;entryY=0.5;entryDx=0;entryDy=0;" parent="1" source="loltS8ejkLvPo0tQ4wPs-9" target="loltS8ejkLvPo0tQ4wPs-23" edge="1">
          <mxGeometry width="50" height="50" relative="1" as="geometry">
            <mxPoint x="-2760" y="-120" as="sourcePoint" />
            <mxPoint x="-2710" y="-170" as="targetPoint" />
          </mxGeometry>
        </mxCell>
        <mxCell id="loltS8ejkLvPo0tQ4wPs-26" value="Pasa&amp;nbsp; a&amp;nbsp;" style="rhombus;whiteSpace=wrap;html=1;" parent="1" vertex="1">
          <mxGeometry x="-2370" y="30" width="80" height="80" as="geometry" />
        </mxCell>
        <mxCell id="loltS8ejkLvPo0tQ4wPs-27" value="" style="endArrow=none;html=1;exitX=1;exitY=0.5;exitDx=0;exitDy=0;entryX=0.5;entryY=0;entryDx=0;entryDy=0;" parent="1" source="loltS8ejkLvPo0tQ4wPs-2" target="loltS8ejkLvPo0tQ4wPs-7" edge="1">
          <mxGeometry width="50" height="50" relative="1" as="geometry">
            <mxPoint x="-2450" y="-240" as="sourcePoint" />
            <mxPoint x="-2400" y="-280" as="targetPoint" />
            <Array as="points">
              <mxPoint x="-2330" y="-312" />
            </Array>
          </mxGeometry>
        </mxCell>
        <mxCell id="loltS8ejkLvPo0tQ4wPs-205" value="1" style="edgeLabel;html=1;align=center;verticalAlign=middle;resizable=0;points=[];" parent="loltS8ejkLvPo0tQ4wPs-27" vertex="1" connectable="0">
          <mxGeometry x="-0.6987" y="-10" relative="1" as="geometry">
            <mxPoint as="offset" />
          </mxGeometry>
        </mxCell>
        <mxCell id="loltS8ejkLvPo0tQ4wPs-28" value="" style="endArrow=none;html=1;exitX=0.5;exitY=0;exitDx=0;exitDy=0;entryX=0.5;entryY=1;entryDx=0;entryDy=0;" parent="1" source="loltS8ejkLvPo0tQ4wPs-6" target="loltS8ejkLvPo0tQ4wPs-7" edge="1">
          <mxGeometry width="50" height="50" relative="1" as="geometry">
            <mxPoint x="-2400" y="-210" as="sourcePoint" />
            <mxPoint x="-2350" y="-260" as="targetPoint" />
          </mxGeometry>
        </mxCell>
        <mxCell id="loltS8ejkLvPo0tQ4wPs-206" value="N" style="edgeLabel;html=1;align=center;verticalAlign=middle;resizable=0;points=[];" parent="loltS8ejkLvPo0tQ4wPs-28" vertex="1" connectable="0">
          <mxGeometry x="-0.7795" y="-10" relative="1" as="geometry">
            <mxPoint as="offset" />
          </mxGeometry>
        </mxCell>
        <mxCell id="loltS8ejkLvPo0tQ4wPs-31" value="Elabora" style="rhombus;whiteSpace=wrap;html=1;" parent="1" vertex="1">
          <mxGeometry x="-2460" y="-46" width="60" height="66" as="geometry" />
        </mxCell>
        <mxCell id="loltS8ejkLvPo0tQ4wPs-32" value="solicita" style="rhombus;whiteSpace=wrap;html=1;" parent="1" vertex="1">
          <mxGeometry x="-2561" y="50" width="80" height="80" as="geometry" />
        </mxCell>
        <mxCell id="loltS8ejkLvPo0tQ4wPs-33" value="SolicitudMateriaPrima" style="rounded=0;whiteSpace=wrap;html=1;" parent="1" vertex="1">
          <mxGeometry x="-2585" y="152" width="120" height="60" as="geometry" />
        </mxCell>
        <mxCell id="loltS8ejkLvPo0tQ4wPs-34" value="Envoltura" style="rounded=0;whiteSpace=wrap;html=1;" parent="1" vertex="1">
          <mxGeometry x="-2390" y="144" width="120" height="60" as="geometry" />
        </mxCell>
        <mxCell id="loltS8ejkLvPo0tQ4wPs-35" value="Y se adjunta" style="rhombus;whiteSpace=wrap;html=1;" parent="1" vertex="1">
          <mxGeometry x="-2270" y="-312" width="80" height="80" as="geometry" />
        </mxCell>
        <mxCell id="loltS8ejkLvPo0tQ4wPs-36" value="" style="endArrow=none;html=1;exitX=1;exitY=0.5;exitDx=0;exitDy=0;" parent="1" source="loltS8ejkLvPo0tQ4wPs-34" target="loltS8ejkLvPo0tQ4wPs-35" edge="1">
          <mxGeometry width="50" height="50" relative="1" as="geometry">
            <mxPoint x="-2240" y="-180" as="sourcePoint" />
            <mxPoint x="-2190" y="-230" as="targetPoint" />
            <Array as="points">
              <mxPoint x="-2230" y="174" />
            </Array>
          </mxGeometry>
        </mxCell>
        <mxCell id="loltS8ejkLvPo0tQ4wPs-37" value="" style="endArrow=none;html=1;entryX=0.5;entryY=0;entryDx=0;entryDy=0;" parent="1" target="loltS8ejkLvPo0tQ4wPs-35" edge="1">
          <mxGeometry width="50" height="50" relative="1" as="geometry">
            <mxPoint x="-2730" y="-360" as="sourcePoint" />
            <mxPoint x="-2690" y="-410" as="targetPoint" />
            <Array as="points">
              <mxPoint x="-2230" y="-360" />
            </Array>
          </mxGeometry>
        </mxCell>
        <mxCell id="loltS8ejkLvPo0tQ4wPs-39" value="" style="endArrow=none;html=1;exitX=0.5;exitY=0;exitDx=0;exitDy=0;entryX=0.5;entryY=1;entryDx=0;entryDy=0;" parent="1" source="loltS8ejkLvPo0tQ4wPs-32" target="loltS8ejkLvPo0tQ4wPs-22" edge="1">
          <mxGeometry width="50" height="50" relative="1" as="geometry">
            <mxPoint x="-2570" y="70" as="sourcePoint" />
            <mxPoint x="-2520" y="20" as="targetPoint" />
          </mxGeometry>
        </mxCell>
        <mxCell id="loltS8ejkLvPo0tQ4wPs-40" value="" style="endArrow=none;html=1;exitX=0.5;exitY=0;exitDx=0;exitDy=0;" parent="1" source="loltS8ejkLvPo0tQ4wPs-33" edge="1">
          <mxGeometry width="50" height="50" relative="1" as="geometry">
            <mxPoint x="-2570" y="180" as="sourcePoint" />
            <mxPoint x="-2520" y="130" as="targetPoint" />
          </mxGeometry>
        </mxCell>
        <mxCell id="loltS8ejkLvPo0tQ4wPs-41" value="" style="endArrow=none;html=1;exitX=0.5;exitY=0;exitDx=0;exitDy=0;" parent="1" source="loltS8ejkLvPo0tQ4wPs-26" edge="1">
          <mxGeometry width="50" height="50" relative="1" as="geometry">
            <mxPoint x="-2380" y="70" as="sourcePoint" />
            <mxPoint x="-2330" y="20" as="targetPoint" />
          </mxGeometry>
        </mxCell>
        <mxCell id="loltS8ejkLvPo0tQ4wPs-42" value="" style="endArrow=none;html=1;exitX=0.5;exitY=0;exitDx=0;exitDy=0;" parent="1" source="loltS8ejkLvPo0tQ4wPs-34" edge="1">
          <mxGeometry width="50" height="50" relative="1" as="geometry">
            <mxPoint x="-2380" y="160" as="sourcePoint" />
            <mxPoint x="-2330" y="110" as="targetPoint" />
          </mxGeometry>
        </mxCell>
        <mxCell id="loltS8ejkLvPo0tQ4wPs-43" value="" style="endArrow=none;html=1;exitX=0.5;exitY=0;exitDx=0;exitDy=0;" parent="1" source="loltS8ejkLvPo0tQ4wPs-11" edge="1">
          <mxGeometry width="50" height="50" relative="1" as="geometry">
            <mxPoint x="-2850" y="50" as="sourcePoint" />
            <mxPoint x="-2800" as="targetPoint" />
          </mxGeometry>
        </mxCell>
        <mxCell id="loltS8ejkLvPo0tQ4wPs-44" value="" style="endArrow=none;html=1;entryX=0.5;entryY=1;entryDx=0;entryDy=0;" parent="1" source="loltS8ejkLvPo0tQ4wPs-13" target="loltS8ejkLvPo0tQ4wPs-11" edge="1">
          <mxGeometry width="50" height="50" relative="1" as="geometry">
            <mxPoint x="-2850" y="110" as="sourcePoint" />
            <mxPoint x="-2800" y="60" as="targetPoint" />
          </mxGeometry>
        </mxCell>
        <mxCell id="loltS8ejkLvPo0tQ4wPs-45" value="" style="endArrow=none;html=1;exitX=0.5;exitY=0;exitDx=0;exitDy=0;" parent="1" source="loltS8ejkLvPo0tQ4wPs-8" target="loltS8ejkLvPo0tQ4wPs-10" edge="1">
          <mxGeometry width="50" height="50" relative="1" as="geometry">
            <mxPoint x="-2850" y="-40" as="sourcePoint" />
            <mxPoint x="-2800" y="-80" as="targetPoint" />
          </mxGeometry>
        </mxCell>
        <mxCell id="loltS8ejkLvPo0tQ4wPs-46" value="" style="endArrow=none;html=1;exitX=0.5;exitY=1;exitDx=0;exitDy=0;" parent="1" source="loltS8ejkLvPo0tQ4wPs-9" target="loltS8ejkLvPo0tQ4wPs-10" edge="1">
          <mxGeometry width="50" height="50" relative="1" as="geometry">
            <mxPoint x="-2850" y="-80" as="sourcePoint" />
            <mxPoint x="-2800" y="-130" as="targetPoint" />
          </mxGeometry>
        </mxCell>
        <mxCell id="loltS8ejkLvPo0tQ4wPs-47" value="Es enviada a" style="rhombus;whiteSpace=wrap;html=1;" parent="1" vertex="1">
          <mxGeometry x="-3050" y="-300" width="80" height="80" as="geometry" />
        </mxCell>
        <mxCell id="loltS8ejkLvPo0tQ4wPs-48" value="" style="endArrow=none;html=1;exitX=0.75;exitY=0;exitDx=0;exitDy=0;" parent="1" source="loltS8ejkLvPo0tQ4wPs-18" edge="1">
          <mxGeometry width="50" height="50" relative="1" as="geometry">
            <mxPoint x="-3060" y="-170" as="sourcePoint" />
            <mxPoint x="-3010" y="-220" as="targetPoint" />
          </mxGeometry>
        </mxCell>
        <mxCell id="loltS8ejkLvPo0tQ4wPs-49" value="" style="endArrow=none;html=1;entryX=0;entryY=0.5;entryDx=0;entryDy=0;" parent="1" target="loltS8ejkLvPo0tQ4wPs-1" edge="1">
          <mxGeometry width="50" height="50" relative="1" as="geometry">
            <mxPoint x="-3010" y="-300" as="sourcePoint" />
            <mxPoint x="-2960" y="-350" as="targetPoint" />
            <Array as="points">
              <mxPoint x="-3010" y="-358" />
            </Array>
          </mxGeometry>
        </mxCell>
        <mxCell id="loltS8ejkLvPo0tQ4wPs-222" value="1" style="edgeLabel;html=1;align=center;verticalAlign=middle;resizable=0;points=[];" parent="loltS8ejkLvPo0tQ4wPs-49" vertex="1" connectable="0">
          <mxGeometry x="0.8895" y="-11" relative="1" as="geometry">
            <mxPoint as="offset" />
          </mxGeometry>
        </mxCell>
        <mxCell id="loltS8ejkLvPo0tQ4wPs-50" value="" style="endArrow=none;html=1;" parent="1" source="loltS8ejkLvPo0tQ4wPs-14" target="loltS8ejkLvPo0tQ4wPs-1" edge="1">
          <mxGeometry width="50" height="50" relative="1" as="geometry">
            <mxPoint x="-2850" y="-280" as="sourcePoint" />
            <mxPoint x="-2800" y="-330" as="targetPoint" />
          </mxGeometry>
        </mxCell>
        <mxCell id="loltS8ejkLvPo0tQ4wPs-51" value="" style="endArrow=none;html=1;" parent="1" source="loltS8ejkLvPo0tQ4wPs-9" target="loltS8ejkLvPo0tQ4wPs-14" edge="1">
          <mxGeometry width="50" height="50" relative="1" as="geometry">
            <mxPoint x="-2850" y="-170" as="sourcePoint" />
            <mxPoint x="-2800" y="-220" as="targetPoint" />
          </mxGeometry>
        </mxCell>
        <mxCell id="loltS8ejkLvPo0tQ4wPs-52" value="" style="endArrow=none;html=1;" parent="1" source="loltS8ejkLvPo0tQ4wPs-17" target="loltS8ejkLvPo0tQ4wPs-18" edge="1">
          <mxGeometry width="50" height="50" relative="1" as="geometry">
            <mxPoint x="-3040" y="-90" as="sourcePoint" />
            <mxPoint x="-2990" y="-140" as="targetPoint" />
          </mxGeometry>
        </mxCell>
        <mxCell id="loltS8ejkLvPo0tQ4wPs-54" value="" style="endArrow=none;html=1;" parent="1" source="loltS8ejkLvPo0tQ4wPs-17" target="loltS8ejkLvPo0tQ4wPs-9" edge="1">
          <mxGeometry width="50" height="50" relative="1" as="geometry">
            <mxPoint x="-2960" y="-60" as="sourcePoint" />
            <mxPoint x="-2910" y="-110" as="targetPoint" />
          </mxGeometry>
        </mxCell>
        <mxCell id="loltS8ejkLvPo0tQ4wPs-55" value="" style="endArrow=none;html=1;" parent="1" source="loltS8ejkLvPo0tQ4wPs-2" target="loltS8ejkLvPo0tQ4wPs-3" edge="1">
          <mxGeometry width="50" height="50" relative="1" as="geometry">
            <mxPoint x="-2690" y="-210" as="sourcePoint" />
            <mxPoint x="-2640" y="-260" as="targetPoint" />
          </mxGeometry>
        </mxCell>
        <mxCell id="loltS8ejkLvPo0tQ4wPs-56" value="" style="endArrow=none;html=1;entryX=0;entryY=0.5;entryDx=0;entryDy=0;" parent="1" source="loltS8ejkLvPo0tQ4wPs-1" target="loltS8ejkLvPo0tQ4wPs-3" edge="1">
          <mxGeometry width="50" height="50" relative="1" as="geometry">
            <mxPoint x="-2730" y="-230" as="sourcePoint" />
            <mxPoint x="-2680" y="-280" as="targetPoint" />
          </mxGeometry>
        </mxCell>
        <mxCell id="loltS8ejkLvPo0tQ4wPs-57" value="" style="endArrow=none;html=1;" parent="1" source="loltS8ejkLvPo0tQ4wPs-2" target="loltS8ejkLvPo0tQ4wPs-20" edge="1">
          <mxGeometry width="50" height="50" relative="1" as="geometry">
            <mxPoint x="-2650" y="-190" as="sourcePoint" />
            <mxPoint x="-2600" y="-240" as="targetPoint" />
          </mxGeometry>
        </mxCell>
        <mxCell id="loltS8ejkLvPo0tQ4wPs-58" value="" style="endArrow=none;html=1;" parent="1" source="loltS8ejkLvPo0tQ4wPs-19" target="loltS8ejkLvPo0tQ4wPs-20" edge="1">
          <mxGeometry width="50" height="50" relative="1" as="geometry">
            <mxPoint x="-2640" y="-200" as="sourcePoint" />
            <mxPoint x="-2590" y="-250" as="targetPoint" />
          </mxGeometry>
        </mxCell>
        <mxCell id="loltS8ejkLvPo0tQ4wPs-59" value="" style="endArrow=none;html=1;" parent="1" source="loltS8ejkLvPo0tQ4wPs-21" target="loltS8ejkLvPo0tQ4wPs-19" edge="1">
          <mxGeometry width="50" height="50" relative="1" as="geometry">
            <mxPoint x="-2650" y="-50" as="sourcePoint" />
            <mxPoint x="-2600" y="-100" as="targetPoint" />
          </mxGeometry>
        </mxCell>
        <mxCell id="loltS8ejkLvPo0tQ4wPs-60" value="" style="endArrow=none;html=1;" parent="1" source="loltS8ejkLvPo0tQ4wPs-22" target="loltS8ejkLvPo0tQ4wPs-21" edge="1">
          <mxGeometry width="50" height="50" relative="1" as="geometry">
            <mxPoint x="-2640" y="-50" as="sourcePoint" />
            <mxPoint x="-2590" y="-100" as="targetPoint" />
          </mxGeometry>
        </mxCell>
        <mxCell id="loltS8ejkLvPo0tQ4wPs-61" value="" style="endArrow=none;html=1;" parent="1" source="loltS8ejkLvPo0tQ4wPs-22" target="loltS8ejkLvPo0tQ4wPs-31" edge="1">
          <mxGeometry width="50" height="50" relative="1" as="geometry">
            <mxPoint x="-2480" y="110" as="sourcePoint" />
            <mxPoint x="-2430" y="60" as="targetPoint" />
          </mxGeometry>
        </mxCell>
        <mxCell id="loltS8ejkLvPo0tQ4wPs-62" value="" style="endArrow=none;html=1;" parent="1" source="loltS8ejkLvPo0tQ4wPs-31" target="loltS8ejkLvPo0tQ4wPs-6" edge="1">
          <mxGeometry width="50" height="50" relative="1" as="geometry">
            <mxPoint x="-2440" y="120" as="sourcePoint" />
            <mxPoint x="-2390" y="70" as="targetPoint" />
          </mxGeometry>
        </mxCell>
        <mxCell id="loltS8ejkLvPo0tQ4wPs-63" value="" style="endArrow=none;html=1;" parent="1" source="loltS8ejkLvPo0tQ4wPs-1" edge="1">
          <mxGeometry width="50" height="50" relative="1" as="geometry">
            <mxPoint x="-2850" y="-360" as="sourcePoint" />
            <mxPoint x="-2800" y="-410" as="targetPoint" />
          </mxGeometry>
        </mxCell>
        <mxCell id="loltS8ejkLvPo0tQ4wPs-64" value="&lt;font style=&quot;font-size: 10px&quot;&gt;Nombre&lt;/font&gt;" style="ellipse;whiteSpace=wrap;html=1;aspect=fixed;" parent="1" vertex="1">
          <mxGeometry x="-2894" y="-480" width="52" height="52" as="geometry" />
        </mxCell>
        <mxCell id="loltS8ejkLvPo0tQ4wPs-65" value="&lt;font style=&quot;font-size: 10px&quot;&gt;DireccionFisica&lt;/font&gt;" style="ellipse;whiteSpace=wrap;html=1;aspect=fixed;" parent="1" vertex="1">
          <mxGeometry x="-2738.5" y="-463" width="74" height="74" as="geometry" />
        </mxCell>
        <mxCell id="loltS8ejkLvPo0tQ4wPs-68" value="&lt;font style=&quot;font-size: 9px&quot;&gt;cedula/Id&lt;/font&gt;" style="ellipse;whiteSpace=wrap;html=1;" parent="1" vertex="1">
          <mxGeometry x="-2935" y="-437.5" width="50" height="28" as="geometry" />
        </mxCell>
        <mxCell id="loltS8ejkLvPo0tQ4wPs-69" value="&#xa;&#xa;&lt;span style=&quot;color: rgb(0, 0, 0); font-family: helvetica; font-size: 9px; font-style: normal; font-weight: 400; letter-spacing: normal; text-align: center; text-indent: 0px; text-transform: none; word-spacing: 0px; background-color: rgb(248, 249, 250); display: inline; float: none;&quot;&gt;correoElectronico&lt;/span&gt;&#xa;&#xa;" style="ellipse;whiteSpace=wrap;html=1;" parent="1" vertex="1">
          <mxGeometry x="-2960" y="-400" width="100" height="30" as="geometry" />
        </mxCell>
        <mxCell id="loltS8ejkLvPo0tQ4wPs-70" value="" style="endArrow=none;html=1;" parent="1" source="loltS8ejkLvPo0tQ4wPs-1" target="loltS8ejkLvPo0tQ4wPs-64" edge="1">
          <mxGeometry width="50" height="50" relative="1" as="geometry">
            <mxPoint x="-2890" y="-370" as="sourcePoint" />
            <mxPoint x="-2840" y="-420" as="targetPoint" />
          </mxGeometry>
        </mxCell>
        <mxCell id="loltS8ejkLvPo0tQ4wPs-71" value="" style="endArrow=none;html=1;" parent="1" source="loltS8ejkLvPo0tQ4wPs-68" target="loltS8ejkLvPo0tQ4wPs-1" edge="1">
          <mxGeometry width="50" height="50" relative="1" as="geometry">
            <mxPoint x="-2980" y="-430" as="sourcePoint" />
            <mxPoint x="-2930" y="-480" as="targetPoint" />
          </mxGeometry>
        </mxCell>
        <mxCell id="loltS8ejkLvPo0tQ4wPs-72" value="" style="endArrow=none;html=1;" parent="1" source="loltS8ejkLvPo0tQ4wPs-69" target="loltS8ejkLvPo0tQ4wPs-1" edge="1">
          <mxGeometry width="50" height="50" relative="1" as="geometry">
            <mxPoint x="-2870" y="-330" as="sourcePoint" />
            <mxPoint x="-2820" y="-370" as="targetPoint" />
          </mxGeometry>
        </mxCell>
        <mxCell id="loltS8ejkLvPo0tQ4wPs-73" value="" style="endArrow=none;html=1;" parent="1" source="loltS8ejkLvPo0tQ4wPs-1" target="loltS8ejkLvPo0tQ4wPs-65" edge="1">
          <mxGeometry width="50" height="50" relative="1" as="geometry">
            <mxPoint x="-2640" y="-430" as="sourcePoint" />
            <mxPoint x="-2590" y="-480" as="targetPoint" />
          </mxGeometry>
        </mxCell>
        <mxCell id="loltS8ejkLvPo0tQ4wPs-74" value="IdNiÃ±o" style="ellipse;whiteSpace=wrap;html=1;" parent="1" vertex="1">
          <mxGeometry x="-3180" y="-190" width="60" height="50" as="geometry" />
        </mxCell>
        <mxCell id="loltS8ejkLvPo0tQ4wPs-75" value="" style="endArrow=none;html=1;" parent="1" source="loltS8ejkLvPo0tQ4wPs-18" target="loltS8ejkLvPo0tQ4wPs-74" edge="1">
          <mxGeometry width="50" height="50" relative="1" as="geometry">
            <mxPoint x="-3190" y="-120" as="sourcePoint" />
            <mxPoint x="-3140" y="-170" as="targetPoint" />
          </mxGeometry>
        </mxCell>
        <mxCell id="loltS8ejkLvPo0tQ4wPs-82" value="Nota: Con el Id ya logra llegar al correo y datos necesarios del niÃ±o" style="text;html=1;strokeColor=none;fillColor=none;align=center;verticalAlign=middle;whiteSpace=wrap;rounded=0;" parent="1" vertex="1">
          <mxGeometry x="-3250" y="-260" width="120" height="60" as="geometry" />
        </mxCell>
        <mxCell id="loltS8ejkLvPo0tQ4wPs-83" value="Id" style="ellipse;whiteSpace=wrap;html=1;" parent="1" vertex="1">
          <mxGeometry x="-2910" y="-260" width="69" height="40" as="geometry" />
        </mxCell>
        <mxCell id="loltS8ejkLvPo0tQ4wPs-84" value="" style="endArrow=none;html=1;" parent="1" source="loltS8ejkLvPo0tQ4wPs-9" target="loltS8ejkLvPo0tQ4wPs-83" edge="1">
          <mxGeometry width="50" height="50" relative="1" as="geometry">
            <mxPoint x="-2990" y="-60" as="sourcePoint" />
            <mxPoint x="-2940" y="-110" as="targetPoint" />
          </mxGeometry>
        </mxCell>
        <mxCell id="loltS8ejkLvPo0tQ4wPs-85" value="idDuende" style="ellipse;whiteSpace=wrap;html=1;aspect=fixed;" parent="1" vertex="1">
          <mxGeometry x="-3160" y="-117" width="57" height="57" as="geometry" />
        </mxCell>
        <mxCell id="loltS8ejkLvPo0tQ4wPs-86" value="" style="endArrow=none;html=1;" parent="1" source="loltS8ejkLvPo0tQ4wPs-85" target="loltS8ejkLvPo0tQ4wPs-18" edge="1">
          <mxGeometry width="50" height="50" relative="1" as="geometry">
            <mxPoint x="-3070" y="-60" as="sourcePoint" />
            <mxPoint x="-3020" y="-110" as="targetPoint" />
          </mxGeometry>
        </mxCell>
        <mxCell id="loltS8ejkLvPo0tQ4wPs-88" value="IdDuendeEncargado" style="ellipse;whiteSpace=wrap;html=1;" parent="1" vertex="1">
          <mxGeometry x="-2720" y="30" width="120" height="80" as="geometry" />
        </mxCell>
        <mxCell id="loltS8ejkLvPo0tQ4wPs-89" value="" style="endArrow=none;html=1;" parent="1" source="loltS8ejkLvPo0tQ4wPs-88" target="loltS8ejkLvPo0tQ4wPs-22" edge="1">
          <mxGeometry width="50" height="50" relative="1" as="geometry">
            <mxPoint x="-2680" y="210" as="sourcePoint" />
            <mxPoint x="-2630" y="160" as="targetPoint" />
          </mxGeometry>
        </mxCell>
        <mxCell id="loltS8ejkLvPo0tQ4wPs-90" value="Id" style="ellipse;whiteSpace=wrap;html=1;" parent="1" vertex="1">
          <mxGeometry x="-2680" y="250" width="70" height="38" as="geometry" />
        </mxCell>
        <mxCell id="loltS8ejkLvPo0tQ4wPs-91" value="" style="endArrow=none;html=1;" parent="1" source="loltS8ejkLvPo0tQ4wPs-90" target="loltS8ejkLvPo0tQ4wPs-33" edge="1">
          <mxGeometry width="50" height="50" relative="1" as="geometry">
            <mxPoint x="-2570" y="270" as="sourcePoint" />
            <mxPoint x="-2520" y="220" as="targetPoint" />
          </mxGeometry>
        </mxCell>
        <mxCell id="loltS8ejkLvPo0tQ4wPs-92" value="Id" style="ellipse;whiteSpace=wrap;html=1;" parent="1" vertex="1">
          <mxGeometry x="-2962" y="160" width="120" height="80" as="geometry" />
        </mxCell>
        <mxCell id="loltS8ejkLvPo0tQ4wPs-93" value="clasificaciÃ³n" style="ellipse;whiteSpace=wrap;html=1;" parent="1" vertex="1">
          <mxGeometry x="-2810" y="170" width="120" height="80" as="geometry" />
        </mxCell>
        <mxCell id="loltS8ejkLvPo0tQ4wPs-94" value="" style="endArrow=none;html=1;" parent="1" source="loltS8ejkLvPo0tQ4wPs-92" target="loltS8ejkLvPo0tQ4wPs-13" edge="1">
          <mxGeometry width="50" height="50" relative="1" as="geometry">
            <mxPoint x="-3000" y="160" as="sourcePoint" />
            <mxPoint x="-2950" y="110" as="targetPoint" />
          </mxGeometry>
        </mxCell>
        <mxCell id="loltS8ejkLvPo0tQ4wPs-95" value="" style="endArrow=none;html=1;" parent="1" source="loltS8ejkLvPo0tQ4wPs-93" target="loltS8ejkLvPo0tQ4wPs-13" edge="1">
          <mxGeometry width="50" height="50" relative="1" as="geometry">
            <mxPoint x="-2910" y="380" as="sourcePoint" />
            <mxPoint x="-2860" y="330" as="targetPoint" />
          </mxGeometry>
        </mxCell>
        <mxCell id="loltS8ejkLvPo0tQ4wPs-96" value="NumReporte" style="ellipse;whiteSpace=wrap;html=1;" parent="1" vertex="1">
          <mxGeometry x="-3004" y="-76.5" width="94" height="35" as="geometry" />
        </mxCell>
        <mxCell id="loltS8ejkLvPo0tQ4wPs-97" value="IdNiÃ±o" style="ellipse;whiteSpace=wrap;html=1;" parent="1" vertex="1">
          <mxGeometry x="-3004" y="34.5" width="105" height="47" as="geometry" />
        </mxCell>
        <mxCell id="loltS8ejkLvPo0tQ4wPs-98" value="" style="endArrow=none;html=1;" parent="1" source="loltS8ejkLvPo0tQ4wPs-8" target="loltS8ejkLvPo0tQ4wPs-96" edge="1">
          <mxGeometry width="50" height="50" relative="1" as="geometry">
            <mxPoint x="-3110" y="70" as="sourcePoint" />
            <mxPoint x="-3060" y="20" as="targetPoint" />
          </mxGeometry>
        </mxCell>
        <mxCell id="loltS8ejkLvPo0tQ4wPs-99" value="" style="endArrow=none;html=1;" parent="1" source="loltS8ejkLvPo0tQ4wPs-8" target="loltS8ejkLvPo0tQ4wPs-97" edge="1">
          <mxGeometry width="50" height="50" relative="1" as="geometry">
            <mxPoint x="-3090" y="90" as="sourcePoint" />
            <mxPoint x="-3040" y="40" as="targetPoint" />
          </mxGeometry>
        </mxCell>
        <mxCell id="loltS8ejkLvPo0tQ4wPs-100" value="IdInfraccion" style="ellipse;whiteSpace=wrap;html=1;" parent="1" vertex="1">
          <mxGeometry x="-3002.5" y="-29" width="91" height="52" as="geometry" />
        </mxCell>
        <mxCell id="loltS8ejkLvPo0tQ4wPs-101" value="" style="endArrow=none;html=1;" parent="1" source="loltS8ejkLvPo0tQ4wPs-100" target="loltS8ejkLvPo0tQ4wPs-8" edge="1">
          <mxGeometry width="50" height="50" relative="1" as="geometry">
            <mxPoint x="-3080" y="190" as="sourcePoint" />
            <mxPoint x="-3030" y="140" as="targetPoint" />
          </mxGeometry>
        </mxCell>
        <mxCell id="loltS8ejkLvPo0tQ4wPs-102" value="Id" style="ellipse;whiteSpace=wrap;html=1;aspect=fixed;" parent="1" vertex="1">
          <mxGeometry x="-2410" y="-103" width="50" height="50" as="geometry" />
        </mxCell>
        <mxCell id="loltS8ejkLvPo0tQ4wPs-103" value="" style="endArrow=none;html=1;" parent="1" source="loltS8ejkLvPo0tQ4wPs-6" target="loltS8ejkLvPo0tQ4wPs-102" edge="1">
          <mxGeometry width="50" height="50" relative="1" as="geometry">
            <mxPoint x="-2440" y="150" as="sourcePoint" />
            <mxPoint x="-2390" y="100" as="targetPoint" />
          </mxGeometry>
        </mxCell>
        <mxCell id="loltS8ejkLvPo0tQ4wPs-104" value="IdJuguete" style="ellipse;whiteSpace=wrap;html=1;" parent="1" vertex="1">
          <mxGeometry x="-2445" y="218" width="120" height="80" as="geometry" />
        </mxCell>
        <mxCell id="loltS8ejkLvPo0tQ4wPs-105" value="IdNiÃ±o" style="ellipse;whiteSpace=wrap;html=1;" parent="1" vertex="1">
          <mxGeometry x="-2310" y="225" width="120" height="80" as="geometry" />
        </mxCell>
        <mxCell id="loltS8ejkLvPo0tQ4wPs-106" value="" style="endArrow=none;html=1;exitX=0.5;exitY=0;exitDx=0;exitDy=0;" parent="1" source="loltS8ejkLvPo0tQ4wPs-105" target="loltS8ejkLvPo0tQ4wPs-34" edge="1">
          <mxGeometry width="50" height="50" relative="1" as="geometry">
            <mxPoint x="-2210" y="200" as="sourcePoint" />
            <mxPoint x="-2160" y="150" as="targetPoint" />
          </mxGeometry>
        </mxCell>
        <mxCell id="loltS8ejkLvPo0tQ4wPs-107" value="" style="endArrow=none;html=1;" parent="1" source="loltS8ejkLvPo0tQ4wPs-104" target="loltS8ejkLvPo0tQ4wPs-34" edge="1">
          <mxGeometry width="50" height="50" relative="1" as="geometry">
            <mxPoint x="-2090" y="200" as="sourcePoint" />
            <mxPoint x="-2040" y="150" as="targetPoint" />
          </mxGeometry>
        </mxCell>
        <mxCell id="loltS8ejkLvPo0tQ4wPs-108" value="NumEnvoltura" style="ellipse;whiteSpace=wrap;html=1;" parent="1" vertex="1">
          <mxGeometry x="-2187" y="160" width="120" height="80" as="geometry" />
        </mxCell>
        <mxCell id="loltS8ejkLvPo0tQ4wPs-109" value="" style="endArrow=none;html=1;" parent="1" source="loltS8ejkLvPo0tQ4wPs-108" target="loltS8ejkLvPo0tQ4wPs-34" edge="1">
          <mxGeometry width="50" height="50" relative="1" as="geometry">
            <mxPoint x="-2170" y="90" as="sourcePoint" />
            <mxPoint x="-2120" y="40" as="targetPoint" />
          </mxGeometry>
        </mxCell>
        <mxCell id="loltS8ejkLvPo0tQ4wPs-110" value="Id" style="ellipse;whiteSpace=wrap;html=1;" parent="1" vertex="1">
          <mxGeometry x="-2465" y="-248.5" width="80" height="37" as="geometry" />
        </mxCell>
        <mxCell id="loltS8ejkLvPo0tQ4wPs-111" value="" style="endArrow=none;html=1;" parent="1" source="loltS8ejkLvPo0tQ4wPs-110" target="loltS8ejkLvPo0tQ4wPs-19" edge="1">
          <mxGeometry width="50" height="50" relative="1" as="geometry">
            <mxPoint x="-2420" y="-110" as="sourcePoint" />
            <mxPoint x="-2370" y="-160" as="targetPoint" />
          </mxGeometry>
        </mxCell>
        <mxCell id="loltS8ejkLvPo0tQ4wPs-112" value="IdFabrica" style="ellipse;whiteSpace=wrap;html=1;" parent="1" vertex="1">
          <mxGeometry x="-2655" y="-117" width="70" height="57" as="geometry" />
        </mxCell>
        <mxCell id="loltS8ejkLvPo0tQ4wPs-113" value="" style="endArrow=none;html=1;" parent="1" source="loltS8ejkLvPo0tQ4wPs-22" target="loltS8ejkLvPo0tQ4wPs-112" edge="1">
          <mxGeometry width="50" height="50" relative="1" as="geometry">
            <mxPoint x="-2730" y="10" as="sourcePoint" />
            <mxPoint x="-2680" y="-40" as="targetPoint" />
          </mxGeometry>
        </mxCell>
        <mxCell id="loltS8ejkLvPo0tQ4wPs-114" value="IdNiÃ±o" style="ellipse;whiteSpace=wrap;html=1;" parent="1" vertex="1">
          <mxGeometry x="-2400" y="-303" width="50" height="53" as="geometry" />
        </mxCell>
        <mxCell id="loltS8ejkLvPo0tQ4wPs-115" value="" style="endArrow=none;html=1;" parent="1" source="loltS8ejkLvPo0tQ4wPs-2" target="loltS8ejkLvPo0tQ4wPs-114" edge="1">
          <mxGeometry width="50" height="50" relative="1" as="geometry">
            <mxPoint x="-2510" y="-430" as="sourcePoint" />
            <mxPoint x="-2460" y="-480" as="targetPoint" />
          </mxGeometry>
        </mxCell>
        <mxCell id="loltS8ejkLvPo0tQ4wPs-116" value="ActualizaciÃ³n?" style="ellipse;whiteSpace=wrap;html=1;" parent="1" vertex="1">
          <mxGeometry x="-2680" y="-278.5" width="95" height="62" as="geometry" />
        </mxCell>
        <mxCell id="loltS8ejkLvPo0tQ4wPs-117" value="" style="endArrow=none;html=1;" parent="1" source="loltS8ejkLvPo0tQ4wPs-2" target="loltS8ejkLvPo0tQ4wPs-116" edge="1">
          <mxGeometry width="50" height="50" relative="1" as="geometry">
            <mxPoint x="-2500" y="-320" as="sourcePoint" />
            <mxPoint x="-2450" y="-370" as="targetPoint" />
          </mxGeometry>
        </mxCell>
        <mxCell id="loltS8ejkLvPo0tQ4wPs-118" value="NiÃ±o" style="swimlane;fontStyle=0;childLayout=stackLayout;horizontal=1;startSize=26;fillColor=none;horizontalStack=0;resizeParent=1;resizeParentMax=0;resizeLast=0;collapsible=1;marginBottom=0;" parent="1" vertex="1">
          <mxGeometry x="-3345" y="-1620" width="140" height="156" as="geometry" />
        </mxCell>
        <mxCell id="loltS8ejkLvPo0tQ4wPs-119" value="PkÂ  Id/Cedula" style="text;strokeColor=none;fillColor=none;align=left;verticalAlign=top;spacingLeft=4;spacingRight=4;overflow=hidden;rotatable=0;points=[[0,0.5],[1,0.5]];portConstraint=eastwest;" parent="loltS8ejkLvPo0tQ4wPs-118" vertex="1">
          <mxGeometry y="26" width="140" height="26" as="geometry" />
        </mxCell>
        <mxCell id="loltS8ejkLvPo0tQ4wPs-120" value="nombre" style="text;strokeColor=none;fillColor=none;align=left;verticalAlign=top;spacingLeft=4;spacingRight=4;overflow=hidden;rotatable=0;points=[[0,0.5],[1,0.5]];portConstraint=eastwest;" parent="loltS8ejkLvPo0tQ4wPs-118" vertex="1">
          <mxGeometry y="52" width="140" height="26" as="geometry" />
        </mxCell>
        <mxCell id="loltS8ejkLvPo0tQ4wPs-121" value="direcion" style="text;strokeColor=none;fillColor=none;align=left;verticalAlign=top;spacingLeft=4;spacingRight=4;overflow=hidden;rotatable=0;points=[[0,0.5],[1,0.5]];portConstraint=eastwest;" parent="loltS8ejkLvPo0tQ4wPs-118" vertex="1">
          <mxGeometry y="78" width="140" height="26" as="geometry" />
        </mxCell>
        <mxCell id="loltS8ejkLvPo0tQ4wPs-122" value="correoElectronico" style="text;strokeColor=none;fillColor=none;align=left;verticalAlign=top;spacingLeft=4;spacingRight=4;overflow=hidden;rotatable=0;points=[[0,0.5],[1,0.5]];portConstraint=eastwest;" parent="loltS8ejkLvPo0tQ4wPs-118" vertex="1">
          <mxGeometry y="104" width="140" height="26" as="geometry" />
        </mxCell>
        <mxCell id="loltS8ejkLvPo0tQ4wPs-123" value="posibilidadDeRegalo" style="text;strokeColor=none;fillColor=none;align=left;verticalAlign=top;spacingLeft=4;spacingRight=4;overflow=hidden;rotatable=0;points=[[0,0.5],[1,0.5]];portConstraint=eastwest;" parent="loltS8ejkLvPo0tQ4wPs-118" vertex="1">
          <mxGeometry y="130" width="140" height="26" as="geometry" />
        </mxCell>
        <mxCell id="loltS8ejkLvPo0tQ4wPs-124" value="Solicitud" style="swimlane;fontStyle=0;childLayout=stackLayout;horizontal=1;startSize=26;fillColor=none;horizontalStack=0;resizeParent=1;resizeParentMax=0;resizeLast=0;collapsible=1;marginBottom=0;" parent="1" vertex="1">
          <mxGeometry x="-3161" y="-1610" width="140" height="104" as="geometry" />
        </mxCell>
        <mxCell id="loltS8ejkLvPo0tQ4wPs-125" value="PKÂ  Â id" style="text;strokeColor=none;fillColor=none;align=left;verticalAlign=top;spacingLeft=4;spacingRight=4;overflow=hidden;rotatable=0;points=[[0,0.5],[1,0.5]];portConstraint=eastwest;" parent="loltS8ejkLvPo0tQ4wPs-124" vertex="1">
          <mxGeometry y="26" width="140" height="26" as="geometry" />
        </mxCell>
        <mxCell id="loltS8ejkLvPo0tQ4wPs-126" value="FK idNiÃ±o" style="text;strokeColor=none;fillColor=none;align=left;verticalAlign=top;spacingLeft=4;spacingRight=4;overflow=hidden;rotatable=0;points=[[0,0.5],[1,0.5]];portConstraint=eastwest;" parent="loltS8ejkLvPo0tQ4wPs-124" vertex="1">
          <mxGeometry y="52" width="140" height="26" as="geometry" />
        </mxCell>
        <mxCell id="loltS8ejkLvPo0tQ4wPs-127" value="bool actualizaciÃ³n" style="text;strokeColor=none;fillColor=none;align=left;verticalAlign=top;spacingLeft=4;spacingRight=4;overflow=hidden;rotatable=0;points=[[0,0.5],[1,0.5]];portConstraint=eastwest;" parent="loltS8ejkLvPo0tQ4wPs-124" vertex="1">
          <mxGeometry y="78" width="140" height="26" as="geometry" />
        </mxCell>
        <mxCell id="loltS8ejkLvPo0tQ4wPs-128" value="Id" style="ellipse;whiteSpace=wrap;html=1;" parent="1" vertex="1">
          <mxGeometry x="-2430" y="-355" width="40" height="40" as="geometry" />
        </mxCell>
        <mxCell id="loltS8ejkLvPo0tQ4wPs-129" value="" style="endArrow=none;html=1;" parent="1" source="loltS8ejkLvPo0tQ4wPs-2" target="loltS8ejkLvPo0tQ4wPs-128" edge="1">
          <mxGeometry width="50" height="50" relative="1" as="geometry">
            <mxPoint x="-2660" y="-460" as="sourcePoint" />
            <mxPoint x="-2610" y="-510" as="targetPoint" />
          </mxGeometry>
        </mxCell>
        <mxCell id="loltS8ejkLvPo0tQ4wPs-130" value="fabrica" style="swimlane;fontStyle=0;childLayout=stackLayout;horizontal=1;startSize=26;fillColor=none;horizontalStack=0;resizeParent=1;resizeParentMax=0;resizeLast=0;collapsible=1;marginBottom=0;" parent="1" vertex="1">
          <mxGeometry x="-3159" y="-1475" width="140" height="50" as="geometry" />
        </mxCell>
        <mxCell id="loltS8ejkLvPo0tQ4wPs-131" value="Id" style="text;strokeColor=none;fillColor=none;align=left;verticalAlign=top;spacingLeft=4;spacingRight=4;overflow=hidden;rotatable=0;points=[[0,0.5],[1,0.5]];portConstraint=eastwest;" parent="loltS8ejkLvPo0tQ4wPs-130" vertex="1">
          <mxGeometry y="26" width="140" height="24" as="geometry" />
        </mxCell>
        <mxCell id="loltS8ejkLvPo0tQ4wPs-134" value="Juguete" style="swimlane;fontStyle=0;childLayout=stackLayout;horizontal=1;startSize=26;fillColor=none;horizontalStack=0;resizeParent=1;resizeParentMax=0;resizeLast=0;collapsible=1;marginBottom=0;" parent="1" vertex="1">
          <mxGeometry x="-2990" y="-1470" width="140" height="52" as="geometry" />
        </mxCell>
        <mxCell id="loltS8ejkLvPo0tQ4wPs-135" value="PKÂ  Â id" style="text;strokeColor=none;fillColor=none;align=left;verticalAlign=top;spacingLeft=4;spacingRight=4;overflow=hidden;rotatable=0;points=[[0,0.5],[1,0.5]];portConstraint=eastwest;" parent="loltS8ejkLvPo0tQ4wPs-134" vertex="1">
          <mxGeometry y="26" width="140" height="26" as="geometry" />
        </mxCell>
        <mxCell id="loltS8ejkLvPo0tQ4wPs-138" value="envoltura" style="swimlane;fontStyle=0;childLayout=stackLayout;horizontal=1;startSize=26;fillColor=none;horizontalStack=0;resizeParent=1;resizeParentMax=0;resizeLast=0;collapsible=1;marginBottom=0;" parent="1" vertex="1">
          <mxGeometry x="-2990" y="-1360" width="140" height="104" as="geometry" />
        </mxCell>
        <mxCell id="loltS8ejkLvPo0tQ4wPs-139" value="Pk numEnvoltura" style="text;strokeColor=none;fillColor=none;align=left;verticalAlign=top;spacingLeft=4;spacingRight=4;overflow=hidden;rotatable=0;points=[[0,0.5],[1,0.5]];portConstraint=eastwest;" parent="loltS8ejkLvPo0tQ4wPs-138" vertex="1">
          <mxGeometry y="26" width="140" height="26" as="geometry" />
        </mxCell>
        <mxCell id="loltS8ejkLvPo0tQ4wPs-140" value="Fk IdJuguete" style="text;strokeColor=none;fillColor=none;align=left;verticalAlign=top;spacingLeft=4;spacingRight=4;overflow=hidden;rotatable=0;points=[[0,0.5],[1,0.5]];portConstraint=eastwest;" parent="loltS8ejkLvPo0tQ4wPs-138" vertex="1">
          <mxGeometry y="52" width="140" height="26" as="geometry" />
        </mxCell>
        <mxCell id="loltS8ejkLvPo0tQ4wPs-141" value="FKÂ  idNiÃ±o" style="text;strokeColor=none;fillColor=none;align=left;verticalAlign=top;spacingLeft=4;spacingRight=4;overflow=hidden;rotatable=0;points=[[0,0.5],[1,0.5]];portConstraint=eastwest;" parent="loltS8ejkLvPo0tQ4wPs-138" vertex="1">
          <mxGeometry y="78" width="140" height="26" as="geometry" />
        </mxCell>
        <mxCell id="loltS8ejkLvPo0tQ4wPs-142" value="Duende" style="swimlane;fontStyle=0;childLayout=stackLayout;horizontal=1;startSize=26;fillColor=none;horizontalStack=0;resizeParent=1;resizeParentMax=0;resizeLast=0;collapsible=1;marginBottom=0;" parent="1" vertex="1">
          <mxGeometry x="-3346.5" y="-1452" width="140" height="52" as="geometry" />
        </mxCell>
        <mxCell id="loltS8ejkLvPo0tQ4wPs-143" value="Pk id" style="text;strokeColor=none;fillColor=none;align=left;verticalAlign=top;spacingLeft=4;spacingRight=4;overflow=hidden;rotatable=0;points=[[0,0.5],[1,0.5]];portConstraint=eastwest;" parent="loltS8ejkLvPo0tQ4wPs-142" vertex="1">
          <mxGeometry y="26" width="140" height="26" as="geometry" />
        </mxCell>
        <mxCell id="loltS8ejkLvPo0tQ4wPs-146" value="JugueteXsolicitud" style="swimlane;fontStyle=0;childLayout=stackLayout;horizontal=1;startSize=26;fillColor=none;horizontalStack=0;resizeParent=1;resizeParentMax=0;resizeLast=0;collapsible=1;marginBottom=0;" parent="1" vertex="1">
          <mxGeometry x="-2995" y="-1610" width="140" height="104" as="geometry" />
        </mxCell>
        <mxCell id="loltS8ejkLvPo0tQ4wPs-147" value="PK id" style="text;strokeColor=none;fillColor=none;align=left;verticalAlign=top;spacingLeft=4;spacingRight=4;overflow=hidden;rotatable=0;points=[[0,0.5],[1,0.5]];portConstraint=eastwest;" parent="loltS8ejkLvPo0tQ4wPs-146" vertex="1">
          <mxGeometry y="26" width="140" height="26" as="geometry" />
        </mxCell>
        <mxCell id="loltS8ejkLvPo0tQ4wPs-148" value="FK idSolicitud" style="text;strokeColor=none;fillColor=none;align=left;verticalAlign=top;spacingLeft=4;spacingRight=4;overflow=hidden;rotatable=0;points=[[0,0.5],[1,0.5]];portConstraint=eastwest;" parent="loltS8ejkLvPo0tQ4wPs-146" vertex="1">
          <mxGeometry y="52" width="140" height="26" as="geometry" />
        </mxCell>
        <mxCell id="loltS8ejkLvPo0tQ4wPs-149" value="FK idJuguete" style="text;strokeColor=none;fillColor=none;align=left;verticalAlign=top;spacingLeft=4;spacingRight=4;overflow=hidden;rotatable=0;points=[[0,0.5],[1,0.5]];portConstraint=eastwest;" parent="loltS8ejkLvPo0tQ4wPs-146" vertex="1">
          <mxGeometry y="78" width="140" height="26" as="geometry" />
        </mxCell>
        <mxCell id="loltS8ejkLvPo0tQ4wPs-150" value="EstacionDeTrabajo" style="swimlane;fontStyle=0;childLayout=stackLayout;horizontal=1;startSize=35;fillColor=none;horizontalStack=0;resizeParent=1;resizeParentMax=0;resizeLast=0;collapsible=1;marginBottom=0;" parent="1" vertex="1">
          <mxGeometry x="-3170" y="-1080" width="140" height="113" as="geometry" />
        </mxCell>
        <mxCell id="loltS8ejkLvPo0tQ4wPs-151" value="Pk Id" style="text;strokeColor=none;fillColor=none;align=left;verticalAlign=top;spacingLeft=4;spacingRight=4;overflow=hidden;rotatable=0;points=[[0,0.5],[1,0.5]];portConstraint=eastwest;" parent="loltS8ejkLvPo0tQ4wPs-150" vertex="1">
          <mxGeometry y="35" width="140" height="26" as="geometry" />
        </mxCell>
        <mxCell id="loltS8ejkLvPo0tQ4wPs-152" value="FkÂ  idDuende" style="text;strokeColor=none;fillColor=none;align=left;verticalAlign=top;spacingLeft=4;spacingRight=4;overflow=hidden;rotatable=0;points=[[0,0.5],[1,0.5]];portConstraint=eastwest;" parent="loltS8ejkLvPo0tQ4wPs-150" vertex="1">
          <mxGeometry y="61" width="140" height="26" as="geometry" />
        </mxCell>
        <mxCell id="loltS8ejkLvPo0tQ4wPs-158" value="FKÂ  idFabrica" style="text;strokeColor=none;fillColor=none;align=left;verticalAlign=top;spacingLeft=4;spacingRight=4;overflow=hidden;rotatable=0;points=[[0,0.5],[1,0.5]];portConstraint=eastwest;" parent="loltS8ejkLvPo0tQ4wPs-150" vertex="1">
          <mxGeometry y="87" width="140" height="26" as="geometry" />
        </mxCell>
        <mxCell id="loltS8ejkLvPo0tQ4wPs-154" value="IdJuguete" style="ellipse;whiteSpace=wrap;html=1;" parent="1" vertex="1">
          <mxGeometry x="-2485" y="35" width="95" height="55" as="geometry" />
        </mxCell>
        <mxCell id="loltS8ejkLvPo0tQ4wPs-155" value="Id" style="ellipse;whiteSpace=wrap;html=1;" parent="1" vertex="1">
          <mxGeometry x="-2470" y="-92.5" width="40" height="29" as="geometry" />
        </mxCell>
        <mxCell id="loltS8ejkLvPo0tQ4wPs-156" value="" style="endArrow=none;html=1;" parent="1" source="loltS8ejkLvPo0tQ4wPs-22" target="loltS8ejkLvPo0tQ4wPs-155" edge="1">
          <mxGeometry width="50" height="50" relative="1" as="geometry">
            <mxPoint x="-2520" y="-10" as="sourcePoint" />
            <mxPoint x="-2610" y="130" as="targetPoint" />
          </mxGeometry>
        </mxCell>
        <mxCell id="loltS8ejkLvPo0tQ4wPs-157" value="" style="endArrow=none;html=1;" parent="1" source="loltS8ejkLvPo0tQ4wPs-22" target="loltS8ejkLvPo0tQ4wPs-154" edge="1">
          <mxGeometry width="50" height="50" relative="1" as="geometry">
            <mxPoint x="-2640" y="190" as="sourcePoint" />
            <mxPoint x="-2590" y="140" as="targetPoint" />
          </mxGeometry>
        </mxCell>
        <mxCell id="loltS8ejkLvPo0tQ4wPs-159" value="NotificaciÃ³nMalComportamiento" style="swimlane;fontStyle=0;childLayout=stackLayout;horizontal=1;startSize=26;fillColor=none;horizontalStack=0;resizeParent=1;resizeParentMax=0;resizeLast=0;collapsible=1;marginBottom=0;" parent="1" vertex="1">
          <mxGeometry x="-3365" y="-1374" width="180" height="104" as="geometry" />
        </mxCell>
        <mxCell id="loltS8ejkLvPo0tQ4wPs-160" value="PKÂ  Â  id" style="text;strokeColor=none;fillColor=none;align=left;verticalAlign=top;spacingLeft=4;spacingRight=4;overflow=hidden;rotatable=0;points=[[0,0.5],[1,0.5]];portConstraint=eastwest;" parent="loltS8ejkLvPo0tQ4wPs-159" vertex="1">
          <mxGeometry y="26" width="180" height="26" as="geometry" />
        </mxCell>
        <mxCell id="loltS8ejkLvPo0tQ4wPs-161" value="FK idNiÃ±o" style="text;strokeColor=none;fillColor=none;align=left;verticalAlign=top;spacingLeft=4;spacingRight=4;overflow=hidden;rotatable=0;points=[[0,0.5],[1,0.5]];portConstraint=eastwest;" parent="loltS8ejkLvPo0tQ4wPs-159" vertex="1">
          <mxGeometry y="52" width="180" height="26" as="geometry" />
        </mxCell>
        <mxCell id="loltS8ejkLvPo0tQ4wPs-162" value="FK idDuende" style="text;strokeColor=none;fillColor=none;align=left;verticalAlign=top;spacingLeft=4;spacingRight=4;overflow=hidden;rotatable=0;points=[[0,0.5],[1,0.5]];portConstraint=eastwest;" parent="loltS8ejkLvPo0tQ4wPs-159" vertex="1">
          <mxGeometry y="78" width="180" height="26" as="geometry" />
        </mxCell>
        <mxCell id="loltS8ejkLvPo0tQ4wPs-164" value="Id" style="ellipse;whiteSpace=wrap;html=1;" parent="1" vertex="1">
          <mxGeometry x="-3080" y="-99.5" width="50" height="29" as="geometry" />
        </mxCell>
        <mxCell id="loltS8ejkLvPo0tQ4wPs-165" value="" style="endArrow=none;html=1;" parent="1" source="loltS8ejkLvPo0tQ4wPs-164" target="loltS8ejkLvPo0tQ4wPs-18" edge="1">
          <mxGeometry width="50" height="50" relative="1" as="geometry">
            <mxPoint x="-3130" y="30" as="sourcePoint" />
            <mxPoint x="-3080" y="-20" as="targetPoint" />
          </mxGeometry>
        </mxCell>
        <mxCell id="loltS8ejkLvPo0tQ4wPs-166" value="ReporteComportamiento" style="swimlane;fontStyle=0;childLayout=stackLayout;horizontal=1;startSize=26;fillColor=none;horizontalStack=0;resizeParent=1;resizeParentMax=0;resizeLast=0;collapsible=1;marginBottom=0;" parent="1" vertex="1">
          <mxGeometry x="-3346" y="-1260" width="140" height="104" as="geometry" />
        </mxCell>
        <mxCell id="loltS8ejkLvPo0tQ4wPs-167" value="Pk nummReporte" style="text;strokeColor=none;fillColor=none;align=left;verticalAlign=top;spacingLeft=4;spacingRight=4;overflow=hidden;rotatable=0;points=[[0,0.5],[1,0.5]];portConstraint=eastwest;" parent="loltS8ejkLvPo0tQ4wPs-166" vertex="1">
          <mxGeometry y="26" width="140" height="26" as="geometry" />
        </mxCell>
        <mxCell id="loltS8ejkLvPo0tQ4wPs-168" value="FK idInfracion" style="text;strokeColor=none;fillColor=none;align=left;verticalAlign=top;spacingLeft=4;spacingRight=4;overflow=hidden;rotatable=0;points=[[0,0.5],[1,0.5]];portConstraint=eastwest;" parent="loltS8ejkLvPo0tQ4wPs-166" vertex="1">
          <mxGeometry y="52" width="140" height="26" as="geometry" />
        </mxCell>
        <mxCell id="loltS8ejkLvPo0tQ4wPs-169" value="FKÂ  idNiÃ±o" style="text;strokeColor=none;fillColor=none;align=left;verticalAlign=top;spacingLeft=4;spacingRight=4;overflow=hidden;rotatable=0;points=[[0,0.5],[1,0.5]];portConstraint=eastwest;" parent="loltS8ejkLvPo0tQ4wPs-166" vertex="1">
          <mxGeometry y="78" width="140" height="26" as="geometry" />
        </mxCell>
        <mxCell id="loltS8ejkLvPo0tQ4wPs-170" value="InfracciÃ³n" style="swimlane;fontStyle=0;childLayout=stackLayout;horizontal=1;startSize=26;fillColor=none;horizontalStack=0;resizeParent=1;resizeParentMax=0;resizeLast=0;collapsible=1;marginBottom=0;" parent="1" vertex="1">
          <mxGeometry x="-3345" y="-1140" width="140" height="78" as="geometry" />
        </mxCell>
        <mxCell id="loltS8ejkLvPo0tQ4wPs-171" value="PK id" style="text;strokeColor=none;fillColor=none;align=left;verticalAlign=top;spacingLeft=4;spacingRight=4;overflow=hidden;rotatable=0;points=[[0,0.5],[1,0.5]];portConstraint=eastwest;" parent="loltS8ejkLvPo0tQ4wPs-170" vertex="1">
          <mxGeometry y="26" width="140" height="26" as="geometry" />
        </mxCell>
        <mxCell id="loltS8ejkLvPo0tQ4wPs-172" value="clasificaciÃ³nÂ " style="text;strokeColor=none;fillColor=none;align=left;verticalAlign=top;spacingLeft=4;spacingRight=4;overflow=hidden;rotatable=0;points=[[0,0.5],[1,0.5]];portConstraint=eastwest;" parent="loltS8ejkLvPo0tQ4wPs-170" vertex="1">
          <mxGeometry y="52" width="140" height="26" as="geometry" />
        </mxCell>
        <mxCell id="loltS8ejkLvPo0tQ4wPs-174" value="SolicitudMateriaPima" style="swimlane;fontStyle=0;childLayout=stackLayout;horizontal=1;startSize=26;fillColor=none;horizontalStack=0;resizeParent=1;resizeParentMax=0;resizeLast=0;collapsible=1;marginBottom=0;" parent="1" vertex="1">
          <mxGeometry x="-3165" y="-950" width="140" height="130" as="geometry" />
        </mxCell>
        <mxCell id="loltS8ejkLvPo0tQ4wPs-175" value="PKÂ  id" style="text;strokeColor=none;fillColor=none;align=left;verticalAlign=top;spacingLeft=4;spacingRight=4;overflow=hidden;rotatable=0;points=[[0,0.5],[1,0.5]];portConstraint=eastwest;" parent="loltS8ejkLvPo0tQ4wPs-174" vertex="1">
          <mxGeometry y="26" width="140" height="26" as="geometry" />
        </mxCell>
        <mxCell id="loltS8ejkLvPo0tQ4wPs-176" value="FKÂ  Producto" style="text;strokeColor=none;fillColor=none;align=left;verticalAlign=top;spacingLeft=4;spacingRight=4;overflow=hidden;rotatable=0;points=[[0,0.5],[1,0.5]];portConstraint=eastwest;" parent="loltS8ejkLvPo0tQ4wPs-174" vertex="1">
          <mxGeometry y="52" width="140" height="26" as="geometry" />
        </mxCell>
        <mxCell id="66TiKLVruTx32pU5MeZz-10" value="Cantidad" style="text;strokeColor=none;fillColor=none;align=left;verticalAlign=top;spacingLeft=4;spacingRight=4;overflow=hidden;rotatable=0;points=[[0,0.5],[1,0.5]];portConstraint=eastwest;" vertex="1" parent="loltS8ejkLvPo0tQ4wPs-174">
          <mxGeometry y="78" width="140" height="26" as="geometry" />
        </mxCell>
        <mxCell id="66TiKLVruTx32pU5MeZz-11" value="Color" style="text;strokeColor=none;fillColor=none;align=left;verticalAlign=top;spacingLeft=4;spacingRight=4;overflow=hidden;rotatable=0;points=[[0,0.5],[1,0.5]];portConstraint=eastwest;" vertex="1" parent="loltS8ejkLvPo0tQ4wPs-174">
          <mxGeometry y="104" width="140" height="26" as="geometry" />
        </mxCell>
        <mxCell id="loltS8ejkLvPo0tQ4wPs-179" value="IdProducto" style="ellipse;whiteSpace=wrap;html=1;" parent="1" vertex="1">
          <mxGeometry x="-2685" y="164" width="85" height="48" as="geometry" />
        </mxCell>
        <mxCell id="loltS8ejkLvPo0tQ4wPs-181" value="cantidad" style="ellipse;whiteSpace=wrap;html=1;" parent="1" vertex="1">
          <mxGeometry x="-2475" y="369" width="90" height="45" as="geometry" />
        </mxCell>
        <mxCell id="loltS8ejkLvPo0tQ4wPs-182" value="color" style="ellipse;whiteSpace=wrap;html=1;" parent="1" vertex="1">
          <mxGeometry x="-2695" y="364" width="85" height="55" as="geometry" />
        </mxCell>
        <mxCell id="loltS8ejkLvPo0tQ4wPs-184" value="" style="endArrow=none;html=1;" parent="1" source="loltS8ejkLvPo0tQ4wPs-182" target="loltS8ejkLvPo0tQ4wPs-188" edge="1">
          <mxGeometry width="50" height="50" relative="1" as="geometry">
            <mxPoint x="-2810" y="343" as="sourcePoint" />
            <mxPoint x="-2760" y="293" as="targetPoint" />
          </mxGeometry>
        </mxCell>
        <mxCell id="loltS8ejkLvPo0tQ4wPs-185" value="" style="endArrow=none;html=1;" parent="1" source="loltS8ejkLvPo0tQ4wPs-179" target="loltS8ejkLvPo0tQ4wPs-33" edge="1">
          <mxGeometry width="50" height="50" relative="1" as="geometry">
            <mxPoint x="-2910" y="400" as="sourcePoint" />
            <mxPoint x="-2860" y="350" as="targetPoint" />
          </mxGeometry>
        </mxCell>
        <mxCell id="loltS8ejkLvPo0tQ4wPs-186" value="" style="endArrow=none;html=1;" parent="1" source="loltS8ejkLvPo0tQ4wPs-181" target="loltS8ejkLvPo0tQ4wPs-188" edge="1">
          <mxGeometry width="50" height="50" relative="1" as="geometry">
            <mxPoint x="-2840" y="363" as="sourcePoint" />
            <mxPoint x="-2790" y="313" as="targetPoint" />
          </mxGeometry>
        </mxCell>
        <mxCell id="loltS8ejkLvPo0tQ4wPs-188" value="Producto" style="rounded=0;whiteSpace=wrap;html=1;" parent="1" vertex="1">
          <mxGeometry x="-2605" y="364" width="120" height="60" as="geometry" />
        </mxCell>
        <mxCell id="loltS8ejkLvPo0tQ4wPs-189" value="Contiene" style="rhombus;whiteSpace=wrap;html=1;" parent="1" vertex="1">
          <mxGeometry x="-2580" y="281" width="65" height="54" as="geometry" />
        </mxCell>
        <mxCell id="loltS8ejkLvPo0tQ4wPs-190" value="" style="endArrow=none;html=1;" parent="1" source="loltS8ejkLvPo0tQ4wPs-189" target="loltS8ejkLvPo0tQ4wPs-33" edge="1">
          <mxGeometry width="50" height="50" relative="1" as="geometry">
            <mxPoint x="-2570" y="270" as="sourcePoint" />
            <mxPoint x="-2520" y="220" as="targetPoint" />
          </mxGeometry>
        </mxCell>
        <mxCell id="loltS8ejkLvPo0tQ4wPs-191" value="" style="endArrow=none;html=1;" parent="1" source="loltS8ejkLvPo0tQ4wPs-189" target="loltS8ejkLvPo0tQ4wPs-188" edge="1">
          <mxGeometry width="50" height="50" relative="1" as="geometry">
            <mxPoint x="-2580" y="290" as="sourcePoint" />
            <mxPoint x="-2530" y="240" as="targetPoint" />
          </mxGeometry>
        </mxCell>
        <mxCell id="loltS8ejkLvPo0tQ4wPs-193" value="N" style="text;html=1;strokeColor=none;fillColor=none;align=center;verticalAlign=middle;whiteSpace=wrap;rounded=0;" parent="1" vertex="1">
          <mxGeometry x="-2541" y="340" width="40" height="20" as="geometry" />
        </mxCell>
        <mxCell id="loltS8ejkLvPo0tQ4wPs-194" value="1" style="text;html=1;strokeColor=none;fillColor=none;align=center;verticalAlign=middle;whiteSpace=wrap;rounded=0;" parent="1" vertex="1">
          <mxGeometry x="-2530" y="218" width="40" height="20" as="geometry" />
        </mxCell>
        <mxCell id="loltS8ejkLvPo0tQ4wPs-195" value="Producto" style="swimlane;fontStyle=0;childLayout=stackLayout;horizontal=1;startSize=26;fillColor=none;horizontalStack=0;resizeParent=1;resizeParentMax=0;resizeLast=0;collapsible=1;marginBottom=0;" parent="1" vertex="1">
          <mxGeometry x="-3161" y="-790" width="140" height="104" as="geometry" />
        </mxCell>
        <mxCell id="loltS8ejkLvPo0tQ4wPs-196" value="PKÂ  id" style="text;strokeColor=none;fillColor=none;align=left;verticalAlign=top;spacingLeft=4;spacingRight=4;overflow=hidden;rotatable=0;points=[[0,0.5],[1,0.5]];portConstraint=eastwest;" parent="loltS8ejkLvPo0tQ4wPs-195" vertex="1">
          <mxGeometry y="26" width="140" height="26" as="geometry" />
        </mxCell>
        <mxCell id="loltS8ejkLvPo0tQ4wPs-197" value="Nombre" style="text;strokeColor=none;fillColor=none;align=left;verticalAlign=top;spacingLeft=4;spacingRight=4;overflow=hidden;rotatable=0;points=[[0,0.5],[1,0.5]];portConstraint=eastwest;" parent="loltS8ejkLvPo0tQ4wPs-195" vertex="1">
          <mxGeometry y="52" width="140" height="26" as="geometry" />
        </mxCell>
        <mxCell id="loltS8ejkLvPo0tQ4wPs-199" value="Descripcion" style="text;strokeColor=none;fillColor=none;align=left;verticalAlign=top;spacingLeft=4;spacingRight=4;overflow=hidden;rotatable=0;points=[[0,0.5],[1,0.5]];portConstraint=eastwest;" parent="loltS8ejkLvPo0tQ4wPs-195" vertex="1">
          <mxGeometry y="78" width="140" height="26" as="geometry" />
        </mxCell>
        <mxCell id="loltS8ejkLvPo0tQ4wPs-201" value="" style="endArrow=none;html=1;entryX=0.5;entryY=0;entryDx=0;entryDy=0;" parent="1" edge="1">
          <mxGeometry width="50" height="50" relative="1" as="geometry">
            <mxPoint x="-2740" y="-360" as="sourcePoint" />
            <mxPoint x="-2730" y="-360" as="targetPoint" />
            <Array as="points" />
          </mxGeometry>
        </mxCell>
        <mxCell id="loltS8ejkLvPo0tQ4wPs-202" value="N" style="text;html=1;align=center;verticalAlign=middle;resizable=0;points=[];autosize=1;" parent="1" vertex="1">
          <mxGeometry x="-2600" y="-340" width="20" height="20" as="geometry" />
        </mxCell>
        <mxCell id="loltS8ejkLvPo0tQ4wPs-203" value="1" style="text;html=1;align=center;verticalAlign=middle;resizable=0;points=[];autosize=1;" parent="1" vertex="1">
          <mxGeometry x="-2520" y="-210" width="20" height="20" as="geometry" />
        </mxCell>
        <mxCell id="loltS8ejkLvPo0tQ4wPs-204" value="N" style="text;html=1;align=center;verticalAlign=middle;resizable=0;points=[];autosize=1;" parent="1" vertex="1">
          <mxGeometry x="-2510" y="-280" width="20" height="20" as="geometry" />
        </mxCell>
        <mxCell id="loltS8ejkLvPo0tQ4wPs-207" value="N" style="text;html=1;align=center;verticalAlign=middle;resizable=0;points=[];autosize=1;" parent="1" vertex="1">
          <mxGeometry x="-2320" y="20" width="20" height="20" as="geometry" />
        </mxCell>
        <mxCell id="loltS8ejkLvPo0tQ4wPs-208" value="1" style="text;html=1;align=center;verticalAlign=middle;resizable=0;points=[];autosize=1;" parent="1" vertex="1">
          <mxGeometry x="-2330" y="120" width="20" height="20" as="geometry" />
        </mxCell>
        <mxCell id="loltS8ejkLvPo0tQ4wPs-209" value="1" style="text;html=1;align=center;verticalAlign=middle;resizable=0;points=[];autosize=1;" parent="1" vertex="1">
          <mxGeometry x="-2500" y="-130" width="20" height="20" as="geometry" />
        </mxCell>
        <mxCell id="loltS8ejkLvPo0tQ4wPs-210" value="N" style="text;html=1;align=center;verticalAlign=middle;resizable=0;points=[];autosize=1;" parent="1" vertex="1">
          <mxGeometry x="-2560" y="-60" width="20" height="20" as="geometry" />
        </mxCell>
        <mxCell id="loltS8ejkLvPo0tQ4wPs-211" value="N" style="text;html=1;align=center;verticalAlign=middle;resizable=0;points=[];autosize=1;" parent="1" vertex="1">
          <mxGeometry x="-2520" y="130" width="20" height="20" as="geometry" />
        </mxCell>
        <mxCell id="loltS8ejkLvPo0tQ4wPs-212" value="1" style="text;html=1;align=center;verticalAlign=middle;resizable=0;points=[];autosize=1;" parent="1" vertex="1">
          <mxGeometry x="-2560" y="30" width="20" height="20" as="geometry" />
        </mxCell>
        <mxCell id="loltS8ejkLvPo0tQ4wPs-213" value="1" style="text;html=1;align=center;verticalAlign=middle;resizable=0;points=[];autosize=1;" parent="1" vertex="1">
          <mxGeometry x="-2730" y="-160" width="20" height="20" as="geometry" />
        </mxCell>
        <mxCell id="loltS8ejkLvPo0tQ4wPs-214" value="1" style="text;html=1;align=center;verticalAlign=middle;resizable=0;points=[];autosize=1;" parent="1" vertex="1">
          <mxGeometry x="-2610" y="-30" width="20" height="20" as="geometry" />
        </mxCell>
        <mxCell id="loltS8ejkLvPo0tQ4wPs-215" value="1" style="text;html=1;align=center;verticalAlign=middle;resizable=0;points=[];autosize=1;" parent="1" vertex="1">
          <mxGeometry x="-2780" y="-140" width="20" height="20" as="geometry" />
        </mxCell>
        <mxCell id="loltS8ejkLvPo0tQ4wPs-216" value="N" style="text;html=1;align=center;verticalAlign=middle;resizable=0;points=[];autosize=1;" parent="1" vertex="1">
          <mxGeometry x="-2790" y="-80" width="20" height="20" as="geometry" />
        </mxCell>
        <mxCell id="loltS8ejkLvPo0tQ4wPs-217" value="1" style="text;html=1;align=center;verticalAlign=middle;resizable=0;points=[];autosize=1;" parent="1" vertex="1">
          <mxGeometry x="-2780" width="20" height="20" as="geometry" />
        </mxCell>
        <mxCell id="loltS8ejkLvPo0tQ4wPs-218" value="N" style="text;html=1;align=center;verticalAlign=middle;resizable=0;points=[];autosize=1;" parent="1" vertex="1">
          <mxGeometry x="-2790" y="60" width="20" height="20" as="geometry" />
        </mxCell>
        <mxCell id="loltS8ejkLvPo0tQ4wPs-219" value="1" style="text;html=1;align=center;verticalAlign=middle;resizable=0;points=[];autosize=1;" parent="1" vertex="1">
          <mxGeometry x="-2880" y="-200" width="20" height="20" as="geometry" />
        </mxCell>
        <mxCell id="loltS8ejkLvPo0tQ4wPs-220" value="N" style="text;html=1;align=center;verticalAlign=middle;resizable=0;points=[];autosize=1;" parent="1" vertex="1">
          <mxGeometry x="-2980" y="-190" width="20" height="20" as="geometry" />
        </mxCell>
        <mxCell id="loltS8ejkLvPo0tQ4wPs-221" value="1" style="text;html=1;align=center;verticalAlign=middle;resizable=0;points=[];autosize=1;" parent="1" vertex="1">
          <mxGeometry x="-3040" y="-220" width="20" height="20" as="geometry" />
        </mxCell>
        <mxCell id="loltS8ejkLvPo0tQ4wPs-224" value="1" style="text;html=1;align=center;verticalAlign=middle;resizable=0;points=[];autosize=1;" parent="1" vertex="1">
          <mxGeometry x="-2270" y="140" width="20" height="20" as="geometry" />
        </mxCell>
        <mxCell id="loltS8ejkLvPo0tQ4wPs-225" value="1" style="text;html=1;align=center;verticalAlign=middle;resizable=0;points=[];autosize=1;" parent="1" vertex="1">
          <mxGeometry x="-2740" y="-328" width="20" height="20" as="geometry" />
        </mxCell>
        <mxCell id="loltS8ejkLvPo0tQ4wPs-229" value="Text" style="text;html=1;strokeColor=none;fillColor=none;align=center;verticalAlign=middle;whiteSpace=wrap;rounded=0;" parent="1" vertex="1">
          <mxGeometry x="-2570" y="-210" width="40" height="20" as="geometry" />
        </mxCell>
        <mxCell id="loltS8ejkLvPo0tQ4wPs-230" value="1" style="text;html=1;strokeColor=none;fillColor=none;align=center;verticalAlign=middle;whiteSpace=wrap;rounded=0;" parent="1" vertex="1">
          <mxGeometry x="-2735" y="-384" width="40" height="20" as="geometry" />
        </mxCell>
        <mxCell id="66TiKLVruTx32pU5MeZz-1" value="SolicitudAFabrica" style="swimlane;fontStyle=0;childLayout=stackLayout;horizontal=1;startSize=26;fillColor=none;horizontalStack=0;resizeParent=1;resizeParentMax=0;resizeLast=0;collapsible=1;marginBottom=0;" vertex="1" parent="1">
          <mxGeometry x="-3150" y="-1380" width="140" height="130" as="geometry" />
        </mxCell>
        <mxCell id="66TiKLVruTx32pU5MeZz-2" value="PK id" style="text;strokeColor=none;fillColor=none;align=left;verticalAlign=top;spacingLeft=4;spacingRight=4;overflow=hidden;rotatable=0;points=[[0,0.5],[1,0.5]];portConstraint=eastwest;" vertex="1" parent="66TiKLVruTx32pU5MeZz-1">
          <mxGeometry y="26" width="140" height="26" as="geometry" />
        </mxCell>
        <mxCell id="66TiKLVruTx32pU5MeZz-3" value="FK idJuguete" style="text;strokeColor=none;fillColor=none;align=left;verticalAlign=top;spacingLeft=4;spacingRight=4;overflow=hidden;rotatable=0;points=[[0,0.5],[1,0.5]];portConstraint=eastwest;" vertex="1" parent="66TiKLVruTx32pU5MeZz-1">
          <mxGeometry y="52" width="140" height="26" as="geometry" />
        </mxCell>
        <mxCell id="66TiKLVruTx32pU5MeZz-4" value="FK idNino" style="text;strokeColor=none;fillColor=none;align=left;verticalAlign=top;spacingLeft=4;spacingRight=4;overflow=hidden;rotatable=0;points=[[0,0.5],[1,0.5]];portConstraint=eastwest;" vertex="1" parent="66TiKLVruTx32pU5MeZz-1">
          <mxGeometry y="78" width="140" height="26" as="geometry" />
        </mxCell>
        <mxCell id="66TiKLVruTx32pU5MeZz-5" value="Fk idFabrica" style="text;strokeColor=none;fillColor=none;align=left;verticalAlign=top;spacingLeft=4;spacingRight=4;overflow=hidden;rotatable=0;points=[[0,0.5],[1,0.5]];portConstraint=eastwest;" vertex="1" parent="66TiKLVruTx32pU5MeZz-1">
          <mxGeometry y="104" width="140" height="26" as="geometry" />
        </mxCell>
        <mxCell id="66TiKLVruTx32pU5MeZz-6" value="SolicitudADuende" style="swimlane;fontStyle=0;childLayout=stackLayout;horizontal=1;startSize=26;fillColor=none;horizontalStack=0;resizeParent=1;resizeParentMax=0;resizeLast=0;collapsible=1;marginBottom=0;" vertex="1" parent="1">
          <mxGeometry x="-3150" y="-1224" width="140" height="104" as="geometry" />
        </mxCell>
        <mxCell id="66TiKLVruTx32pU5MeZz-7" value="PK id" style="text;strokeColor=none;fillColor=none;align=left;verticalAlign=top;spacingLeft=4;spacingRight=4;overflow=hidden;rotatable=0;points=[[0,0.5],[1,0.5]];portConstraint=eastwest;" vertex="1" parent="66TiKLVruTx32pU5MeZz-6">
          <mxGeometry y="26" width="140" height="26" as="geometry" />
        </mxCell>
        <mxCell id="66TiKLVruTx32pU5MeZz-8" value="FK idEstacionDeTrabajo" style="text;strokeColor=none;fillColor=none;align=left;verticalAlign=top;spacingLeft=4;spacingRight=4;overflow=hidden;rotatable=0;points=[[0,0.5],[1,0.5]];portConstraint=eastwest;" vertex="1" parent="66TiKLVruTx32pU5MeZz-6">
          <mxGeometry y="52" width="140" height="26" as="geometry" />
        </mxCell>
        <mxCell id="66TiKLVruTx32pU5MeZz-9" value="Fk idiSolicitudAFabrica" style="text;strokeColor=none;fillColor=none;align=left;verticalAlign=top;spacingLeft=4;spacingRight=4;overflow=hidden;rotatable=0;points=[[0,0.5],[1,0.5]];portConstraint=eastwest;" vertex="1" parent="66TiKLVruTx32pU5MeZz-6">
          <mxGeometry y="78" width="140" height="26" as="geometry" />
        </mxCell>
      </root>
    </mxGraphModel>
  </diagram>
</mxfile>
